<svg width="23" height="24" viewBox="0 0 23 24" fill="none" xmlns="http://www.w3.org/2000/svg">
<path d="M12.5655 11.6634L16.5946 7.49367C16.7711 7.31065 16.8702 7.06241 16.8702 6.80358C16.8702 6.54474 16.7711 6.29651 16.5946 6.11348C16.4182 5.93046 16.1789 5.82764 15.9294 5.82764C15.6798 5.82764 15.4405 5.93046 15.2641 6.11348L11.2443 10.2929L7.22444 6.11348C7.04799 5.93046 6.80868 5.82764 6.55915 5.82764C6.30962 5.82764 6.07031 5.93046 5.89387 6.11348C5.71742 6.29651 5.6183 6.54474 5.6183 6.80358C5.6183 7.06241 5.71742 7.31065 5.89387 7.49367L9.92306 11.6634L5.89387 15.8331C5.80604 15.9235 5.73633 16.031 5.68876 16.1494C5.64119 16.2679 5.6167 16.3949 5.6167 16.5232C5.6167 16.6515 5.64119 16.7786 5.68876 16.897C5.73633 17.0155 5.80604 17.123 5.89387 17.2133C5.98098 17.3044 6.08461 17.3767 6.1988 17.4261C6.31298 17.4754 6.43545 17.5008 6.55915 17.5008C6.68285 17.5008 6.80532 17.4754 6.91951 17.4261C7.03369 17.3767 7.13733 17.3044 7.22444 17.2133L11.2443 13.0339L15.2641 17.2133C15.3512 17.3044 15.4548 17.3767 15.569 17.4261C15.6832 17.4754 15.8057 17.5008 15.9294 17.5008C16.0531 17.5008 16.1755 17.4754 16.2897 17.4261C16.4039 17.3767 16.5075 17.3044 16.5946 17.2133C16.6825 17.123 16.7522 17.0155 16.7997 16.897C16.8473 16.7786 16.8718 16.6515 16.8718 16.5232C16.8718 16.3949 16.8473 16.2679 16.7997 16.1494C16.7522 16.031 16.6825 15.9235 16.5946 15.8331L12.5655 11.6634Z" fill="white"/>
</svg>
