<svg width="32" height="32" viewBox="0 0 32 32" fill="none" xmlns="http://www.w3.org/2000/svg">
<path d="M17.5305 15.9785L17.1643 16.3362L17.5305 16.6938L23.2639 22.2936L23.2649 22.2946C23.3426 22.37 23.4036 22.4591 23.445 22.5564C23.4864 22.6538 23.5076 22.7578 23.5076 22.8626C23.5076 22.9675 23.4864 23.0715 23.445 23.1688C23.4036 23.2662 23.3426 23.3553 23.2649 23.4307L23.2649 23.4307L23.262 23.4335C23.185 23.5095 23.0928 23.5704 22.9905 23.6121C22.8882 23.6539 22.778 23.6755 22.6666 23.6755C22.5551 23.6755 22.445 23.6539 22.3426 23.6121C22.2403 23.5704 22.1481 23.5095 22.0711 23.4335L22.0701 23.4325L16.3501 17.8197L15.9999 17.4761L15.6497 17.8197L9.92972 23.4325L9.92868 23.4335C9.85168 23.5095 9.75951 23.5704 9.65719 23.6121C9.55486 23.6539 9.44473 23.6755 9.33325 23.6755C9.22177 23.6755 9.11164 23.6539 9.00931 23.6121C8.90699 23.5704 8.81482 23.5095 8.73782 23.4335L8.73489 23.4307C8.65727 23.3553 8.59624 23.2662 8.5548 23.1688C8.51337 23.0715 8.49219 22.9674 8.49219 22.8626C8.49219 22.7578 8.51337 22.6538 8.5548 22.5564C8.59624 22.4591 8.65727 22.37 8.7349 22.2946L8.73595 22.2936L14.4693 16.6938L14.8355 16.3362L14.4693 15.9785L8.73636 10.3791C8.7363 10.3791 8.73624 10.379 8.73618 10.379C8.58013 10.2261 8.49446 10.0211 8.49446 9.80966C8.49446 9.59814 8.5802 9.39307 8.73636 9.24019C8.89289 9.08695 9.1074 8.99902 9.33325 8.99902C9.559 8.99902 9.77342 9.08688 9.92993 9.23998C9.93 9.24005 9.93007 9.24012 9.93014 9.24019L15.6497 14.8526L15.9999 15.1962L16.3501 14.8526L22.0697 9.24019C22.0698 9.24011 22.0698 9.24003 22.0699 9.23995C22.2264 9.08686 22.4408 8.99902 22.6666 8.99902C22.8924 8.99902 23.1069 9.08695 23.2635 9.24019C23.4196 9.39307 23.5054 9.59814 23.5054 9.80966C23.5054 10.0212 23.4196 10.2263 23.2635 10.3791L17.5305 15.9785Z" fill="white" stroke="black"/>
</svg>
