<svg width="82" height="83" viewBox="0 0 82 83" fill="none" xmlns="http://www.w3.org/2000/svg">
<path d="M57.1742 31.3983C58.6801 29.9777 58.763 27.5904 57.3595 26.0662C55.956 24.5419 53.5975 24.4579 52.0916 25.8786L41.1852 36.1677L31.02 25.1282C29.6165 23.6039 27.258 23.52 25.7521 24.9406C24.2463 26.3612 24.1633 28.7485 25.5668 30.2727L35.7319 41.3122L24.8254 51.6013C23.3196 53.0219 23.2366 55.4092 24.6401 56.9334C26.0436 58.4577 28.4021 58.5417 29.908 57.121L40.8145 46.832L50.9796 57.8714C52.3831 59.3957 54.7416 59.4797 56.2475 58.059C57.7534 56.6384 57.8363 54.2511 56.4328 52.7269L46.2677 41.6874L57.1742 31.3983Z" fill="white"/>
<path fill-rule="evenodd" clip-rule="evenodd" d="M0 41.5C0 18.5802 18.3563 0 41 0C63.6437 0 82 18.5802 82 41.5C82 64.4198 63.6437 83 41 83C18.3563 83 0 64.4198 0 41.5ZM41 75.4545C22.4734 75.4545 7.45455 60.2526 7.45455 41.5C7.45455 22.7474 22.4734 7.54545 41 7.54545C59.5266 7.54545 74.5455 22.7474 74.5455 41.5C74.5455 60.2526 59.5266 75.4545 41 75.4545Z" fill="white"/>
</svg>
