<svg width="24" height="24" viewBox="0 0 24 24" fill="none" xmlns="http://www.w3.org/2000/svg">
<path d="M12 4.8C12.6627 4.8 13.2 5.33726 13.2 6V13.2C13.2 13.8627 12.6627 14.4 12 14.4C11.3373 14.4 10.8 13.8627 10.8 13.2V6C10.8 5.33726 11.3373 4.8 12 4.8Z" fill="#FE0713"/>
<path d="M12 16.8C11.3373 16.8 10.8 17.3373 10.8 18C10.8 18.6627 11.3373 19.2 12 19.2C12.6627 19.2 13.2 18.6627 13.2 18C13.2 17.3373 12.6627 16.8 12 16.8Z" fill="#FE0713"/>
<path fill-rule="evenodd" clip-rule="evenodd" d="M12 0C5.37258 0 0 5.37258 0 12C0 18.6274 5.37258 24 12 24C18.6274 24 24 18.6274 24 12C24 5.37258 18.6274 0 12 0ZM2.4 12C2.4 17.3019 6.69807 21.6 12 21.6C17.3019 21.6 21.6 17.3019 21.6 12C21.6 6.69807 17.3019 2.4 12 2.4C6.69807 2.4 2.4 6.69807 2.4 12Z" fill="#FE0713"/>
</svg>
