<svg width="60" height="60" viewBox="0 0 60 60" fill="none" xmlns="http://www.w3.org/2000/svg">
<path d="M52.9358 27.804C50.8942 26.7833 47.0663 26.7715 46.9043 26.7715C46.4189 26.7715 46.0254 27.165 46.0254 27.6504C46.0254 28.1358 46.4189 28.5293 46.9043 28.5293C47.8921 28.5294 50.76 28.6815 52.1497 29.3763C52.2759 29.4395 52.41 29.4693 52.5421 29.4693C52.8645 29.4693 53.1749 29.2911 53.3289 28.9833C53.546 28.5491 53.37 28.0212 52.9358 27.804Z" fill="white"/>
<path d="M57.3178 40.3174L53.6879 39.2803C53.5312 39.2355 53.4218 39.0904 53.4218 38.9274V37.7158C53.7171 37.5112 53.9988 37.2822 54.2621 37.0266C55.5383 35.7882 56.2411 34.1271 56.2411 32.3491V30.6772L56.5921 29.9754C56.9773 29.2048 57.1808 28.3422 57.1808 27.4809V22.9516C57.1808 22.4662 56.7873 22.0727 56.3019 22.0727H47.8441C44.7687 22.0727 42.2665 24.5749 42.2665 27.6504V27.7027C42.2665 28.419 42.4358 29.1363 42.7561 29.7768L43.2062 30.6771V32.1126C43.2062 34.3877 44.3273 36.429 46.0255 37.6573L46.0257 38.9272C46.0257 39.123 46.0257 39.2041 45.3 39.4115L43.5288 39.9175L38.4053 38.0545C38.4237 37.8127 38.3421 37.5669 38.1657 37.3816L36.5285 35.6615V32.774C36.7016 32.6314 36.8722 32.4849 37.0376 32.33C39.103 30.3941 40.2875 27.6608 40.2875 24.8311V22.525C40.9112 21.1679 41.2273 19.7318 41.2273 18.2527V8.85547C41.2273 8.37008 40.8338 7.97656 40.3484 7.97656H27.1918C22.5618 7.97656 18.795 11.7434 18.795 16.3734V18.253C18.795 19.732 19.1111 21.1681 19.7347 22.5253V24.5094C19.7347 27.7948 21.1956 30.7548 23.4937 32.7062V35.6616L21.8565 37.3817C21.6802 37.567 21.5986 37.8129 21.617 38.0546L16.2094 40.0209C15.8175 40.1634 15.4534 40.3564 15.1228 40.5902L14.2737 40.1656C16.8014 39.0654 17.6021 37.5179 17.6406 37.441C17.7643 37.1936 17.7643 36.9023 17.6406 36.6549C17.007 35.3877 16.9302 33.0649 16.8686 31.1986C16.848 30.5772 16.8286 29.9902 16.7914 29.4676C16.4918 25.2519 13.287 22.0727 9.33656 22.0727C5.38617 22.0727 2.18121 25.2518 1.88168 29.4676C1.84453 29.9904 1.82508 30.5773 1.80457 31.1988C1.74293 33.065 1.66605 35.3875 1.03254 36.6548C0.908789 36.9022 0.908789 37.1935 1.03254 37.4409C1.07098 37.5178 1.87008 39.0621 4.40285 40.1636L2.04422 41.3429C0.783281 41.9738 0 43.2412 0 44.6509V51.1441C0 51.6295 0.393516 52.023 0.878906 52.023C1.3643 52.023 1.75781 51.6295 1.75781 51.1441V44.6509C1.75781 43.9112 2.16879 43.2461 2.83031 42.9153L5.76738 41.4468L6.78902 42.4177C7.5034 43.0966 8.4198 43.4359 9.33656 43.4359C10.2531 43.4359 11.17 43.0964 11.8841 42.4177L12.9056 41.447L13.8633 41.9258C13.4123 42.6473 13.1564 43.4934 13.1564 44.3797V51.1443C13.1564 51.6297 13.5499 52.0232 14.0353 52.0232C14.5207 52.0232 14.9142 51.6297 14.9142 51.1443V44.3797C14.9142 43.1731 15.6761 42.0854 16.8101 41.673L22.5115 39.5998L24.8849 43.1601C25.1883 43.6153 25.6745 43.9072 26.2188 43.9611C26.2795 43.9671 26.3399 43.97 26.4001 43.97C26.8804 43.97 27.3403 43.781 27.6841 43.4373L29.1321 41.9893V51.1445C29.1321 51.6298 29.5256 52.0234 30.011 52.0234C30.4964 52.0234 30.8899 51.6298 30.8899 51.1445V41.9893L32.3379 43.4373C32.6816 43.7811 33.1416 43.9701 33.6219 43.9701C33.682 43.9701 33.7425 43.9672 33.8031 43.9612C34.3475 43.9073 34.8338 43.6154 35.1371 43.1602L37.5107 39.6001L43.212 41.6732C44.3459 42.0856 45.1078 43.1734 45.1078 44.3799V51.1446C45.1078 51.63 45.5013 52.0235 45.9867 52.0235C46.4721 52.0235 46.8656 51.63 46.8656 51.1446V44.3799C46.8656 43.1579 46.3801 42.0118 45.5657 41.1642L45.7828 41.1022C46.0018 41.0396 46.3007 40.9539 46.6007 40.8069L48.8447 43.0509V51.1446C48.8447 51.63 49.2382 52.0235 49.7236 52.0235C50.209 52.0235 50.6025 51.63 50.6025 51.1446V43.0509L52.8309 40.8225C52.9494 40.8827 53.0739 40.9336 53.2049 40.9709L56.8349 42.008C57.6634 42.2448 58.2422 43.012 58.2422 43.8738V51.1446C58.2422 51.63 58.6357 52.0235 59.1211 52.0235C59.6065 52.0235 60 51.63 60 51.1446V43.8738C60 42.2311 58.897 40.7687 57.3178 40.3174ZM5.63848 38.765C3.99445 38.1734 3.1698 37.3848 2.81777 36.9541C3.05777 36.3267 3.2134 35.6081 3.31875 34.8495C3.80344 36.0117 4.6152 37.0038 5.63848 37.7116V38.765ZM10.6734 41.1437C9.92379 41.8559 8.74945 41.8558 8.00004 41.1436L7.18266 40.3668C7.32059 40.1084 7.39641 39.8155 7.39641 39.5086V38.5718C8.00953 38.7634 8.66133 38.8667 9.3368 38.8667C10.0114 38.8667 10.6629 38.7629 11.2771 38.5723L11.277 39.5084C11.277 39.8155 11.3527 40.1086 11.4907 40.3671L10.6734 41.1437ZM9.33703 37.1089C6.7125 37.1089 4.57746 34.9738 4.57746 32.3493C4.57746 31.8639 4.18395 31.4704 3.69855 31.4704C3.64934 31.4704 3.60129 31.4755 3.5543 31.4833C3.55687 31.4077 3.55934 31.332 3.56191 31.2571C3.58148 30.6528 3.60035 30.082 3.63516 29.5924C3.74742 28.0132 4.37848 26.5579 5.41207 25.4946C6.45492 24.4216 7.84875 23.8307 9.3368 23.8307C10.8248 23.8307 12.2186 24.4216 13.2615 25.4946C14.2951 26.5579 14.9262 28.0132 15.0384 29.5924C15.0731 30.0819 15.0921 30.6526 15.112 31.2568C15.1138 31.3087 15.1155 31.3613 15.1173 31.4136C14.1611 29.9403 12.6843 28.8546 10.7761 28.2414C9.01324 27.6751 7.49707 27.7101 7.43309 27.7118C7.20293 27.7182 6.98449 27.8145 6.82477 27.9802L5.23898 29.6248C4.90207 29.9743 4.91215 30.5307 5.2616 30.8676C5.61105 31.2045 6.16746 31.1943 6.50437 30.845L7.82391 29.4766C8.96027 29.5322 12.6162 29.9573 14.038 33.0882C13.6802 35.3954 11.6972 37.1089 9.33703 37.1089ZM13.0346 38.7679L13.0348 37.7197C14.0572 37.0157 14.8702 36.0255 15.3552 34.8546C15.4605 35.6114 15.6161 36.3283 15.8556 36.9543C15.5055 37.3809 14.677 38.1766 13.0346 38.7679ZM21.4925 24.5093V22.3286C21.4925 22.1963 21.4627 22.0657 21.4051 21.9465C20.8396 20.7753 20.5528 19.5327 20.5528 18.253V16.3735C20.5528 12.7127 23.5311 9.73449 27.1918 9.73449H39.4695V18.2531C39.4695 19.5328 39.1827 20.7754 38.6171 21.9466C38.5596 22.0658 38.5297 22.1964 38.5297 22.3287V24.8313C38.5297 27.2115 37.5729 29.4192 35.8355 31.0477C35.6186 31.2509 35.3934 31.4415 35.1607 31.619C35.1555 31.6225 35.1506 31.6264 35.1456 31.63C33.518 32.8658 31.5244 33.4664 29.4424 33.3315C24.9845 33.0429 21.4925 29.1677 21.4925 24.5093ZM26.4412 42.1941C26.4352 42.2002 26.421 42.2146 26.3923 42.2116C26.3637 42.2088 26.3524 42.192 26.3476 42.1848L23.6142 38.0846L24.4938 37.1604L28.6405 39.9948L26.4412 42.1941ZM30.0111 38.8024L25.2516 35.549V33.9084C26.4831 34.5741 27.862 34.9905 29.3286 35.0854C29.5603 35.1004 29.7906 35.1078 30.0202 35.1078C31.7007 35.1078 33.3182 34.7061 34.7707 33.9436V35.549L30.0111 38.8024ZM33.6746 42.185C33.6698 42.1923 33.6586 42.209 33.63 42.2118C33.6013 42.2155 33.5872 42.2004 33.581 42.1944L31.3818 39.9951L35.5284 37.1606L36.4082 38.0848L33.6746 42.185ZM49.7236 41.4434L47.7291 39.449C47.7639 39.2909 47.7836 39.1179 47.7834 38.927L47.7833 38.5561C48.3368 38.7377 48.9202 38.8455 49.5238 38.8636C49.5915 38.8657 49.6587 38.8666 49.7262 38.8666C50.3932 38.8666 51.0443 38.7658 51.664 38.5735V38.9274C51.664 39.1027 51.686 39.2745 51.7275 39.4396L49.7236 41.4434ZM53.038 35.7652C52.1065 36.6692 50.8759 37.1466 49.5766 37.1066C47.0332 37.0303 44.964 34.79 44.964 32.1129V30.4698C44.964 30.3332 44.9323 30.1987 44.8712 30.0767L44.3283 28.9909C44.1294 28.593 44.0243 28.1477 44.0243 27.7029V27.6505C44.0243 25.5441 45.7379 23.8306 47.8441 23.8306H55.423V27.481C55.423 28.0709 55.2836 28.6617 55.0198 29.1894L54.5761 30.0767C54.515 30.1988 54.4833 30.3332 54.4833 30.4698V32.3492C54.4833 33.6477 53.97 34.8608 53.038 35.7652Z" fill="white"/>
<path d="M55.3623 44.6267C54.8769 44.6267 54.4834 45.0202 54.4834 45.5056V51.1441C54.4834 51.6295 54.8769 52.023 55.3623 52.023C55.8477 52.023 56.2412 51.6295 56.2412 51.1441V45.5056C56.2412 45.0203 55.8477 44.6267 55.3623 44.6267Z" fill="white"/>
<path d="M4.6377 45.7883C4.1523 45.7883 3.75879 46.1818 3.75879 46.6672V51.1439C3.75879 51.6293 4.1523 52.0228 4.6377 52.0228C5.12309 52.0228 5.5166 51.6293 5.5166 51.1439V46.6672C5.5166 46.182 5.12309 45.7883 4.6377 45.7883Z" fill="white"/>
<path d="M37.2106 18.5712C33.8865 15.2471 26.9315 15.8826 24.0953 16.3101C23.202 16.4447 22.5537 17.2007 22.5537 18.1076V20.1324C22.5537 20.6178 22.9472 21.0113 23.4326 21.0113C23.918 21.0113 24.3115 20.6178 24.3115 20.1324V18.1075C24.3115 18.0776 24.3312 18.0521 24.3575 18.0481C25.4903 17.8774 27.7383 17.6139 30.0674 17.7692C32.8082 17.9517 34.7934 18.6397 35.9677 19.8141C36.3109 20.1574 36.8675 20.1574 37.2106 19.8141C37.5538 19.4709 37.5538 18.9144 37.2106 18.5712Z" fill="white"/>
<path d="M19.6738 46.5061C19.1884 46.5061 18.7949 46.8996 18.7949 47.385V51.144C18.7949 51.6294 19.1884 52.0229 19.6738 52.0229C20.1592 52.0229 20.5527 51.6294 20.5527 51.144V47.385C20.5527 46.8997 20.1592 46.5061 19.6738 46.5061Z" fill="white"/>
<path d="M40.3486 46.5061C39.8632 46.5061 39.4697 46.8996 39.4697 47.385V51.144C39.4697 51.6294 39.8632 52.0229 40.3486 52.0229C40.834 52.0229 41.2275 51.6294 41.2275 51.144V47.385C41.2275 46.8997 40.834 46.5061 40.3486 46.5061Z" fill="white"/>
</svg>
