<svg width="41" height="41" viewBox="0 0 41 41" fill="none" xmlns="http://www.w3.org/2000/svg">
<path d="M39.7188 34.5946H21.7812C21.074 34.5946 20.5 34.0206 20.5 33.3133C20.5 32.6061 20.5 8.39557 20.5 7.68832C20.5 6.98107 21.074 6.40707 21.7812 6.40707H39.7188C40.426 6.40707 41 6.98107 41 7.68832V33.3133C41 34.0206 40.426 34.5946 39.7188 34.5946Z" fill="#ECEFF1"/>
<path d="M26.9062 14.0946H21.7812C21.074 14.0946 20.5 13.5206 20.5 12.8133C20.5 12.1061 21.074 11.5321 21.7812 11.5321H26.9062C27.6135 11.5321 28.1875 12.1061 28.1875 12.8133C28.1875 13.5206 27.6135 14.0946 26.9062 14.0946Z" fill="#388E3C"/>
<path d="M26.9062 19.2196H21.7812C21.074 19.2196 20.5 18.6456 20.5 17.9383C20.5 17.2311 21.074 16.6571 21.7812 16.6571H26.9062C27.6135 16.6571 28.1875 17.2311 28.1875 17.9383C28.1875 18.6456 27.6135 19.2196 26.9062 19.2196Z" fill="#388E3C"/>
<path d="M26.9062 24.3446H21.7812C21.074 24.3446 20.5 23.7706 20.5 23.0633C20.5 22.3561 21.074 21.7821 21.7812 21.7821H26.9062C27.6135 21.7821 28.1875 22.3561 28.1875 23.0633C28.1875 23.7706 27.6135 24.3446 26.9062 24.3446Z" fill="#388E3C"/>
<path d="M26.9062 29.4696H21.7812C21.074 29.4696 20.5 28.8956 20.5 28.1883C20.5 27.4811 21.074 26.9071 21.7812 26.9071H26.9062C27.6135 26.9071 28.1875 27.4811 28.1875 28.1883C28.1875 28.8956 27.6135 29.4696 26.9062 29.4696Z" fill="#388E3C"/>
<path d="M34.5938 14.0946H32.0312C31.324 14.0946 30.75 13.5206 30.75 12.8133C30.75 12.1061 31.324 11.5321 32.0312 11.5321H34.5938C35.301 11.5321 35.875 12.1061 35.875 12.8133C35.875 13.5206 35.301 14.0946 34.5938 14.0946Z" fill="#388E3C"/>
<path d="M34.5938 19.2196H32.0312C31.324 19.2196 30.75 18.6456 30.75 17.9383C30.75 17.2311 31.324 16.6571 32.0312 16.6571H34.5938C35.301 16.6571 35.875 17.2311 35.875 17.9383C35.875 18.6456 35.301 19.2196 34.5938 19.2196Z" fill="#388E3C"/>
<path d="M34.5938 24.3446H32.0312C31.324 24.3446 30.75 23.7706 30.75 23.0633C30.75 22.3561 31.324 21.7821 32.0312 21.7821H34.5938C35.301 21.7821 35.875 22.3561 35.875 23.0633C35.875 23.7706 35.301 24.3446 34.5938 24.3446Z" fill="#388E3C"/>
<path d="M34.5938 29.4696H32.0312C31.324 29.4696 30.75 28.8956 30.75 28.1883C30.75 27.4811 31.324 26.9071 32.0312 26.9071H34.5938C35.301 26.9071 35.875 27.4811 35.875 28.1883C35.875 28.8956 35.301 29.4696 34.5938 29.4696Z" fill="#388E3C"/>
<path d="M22.5987 1.57697C22.3066 1.33354 21.9145 1.22847 21.5455 1.30535L1.0455 5.1491C0.438187 5.26185 0 5.78972 0 6.40729V34.5948C0 35.2098 0.438187 35.7402 1.0455 35.853L21.5455 39.6967C21.6224 39.7121 21.7018 39.7198 21.7812 39.7198C22.0785 39.7198 22.3681 39.6173 22.5987 39.4251C22.8934 39.1817 23.0625 38.8178 23.0625 38.4385V2.56354C23.0625 2.18172 22.8934 1.82041 22.5987 1.57697Z" fill="#2E7D32"/>
<path d="M17.6198 24.7828L13.5685 20.1523L17.666 14.8838C18.1016 14.3252 17.9991 13.5206 17.443 13.0849C16.887 12.6493 16.0823 12.7518 15.6442 13.3079L11.8491 18.1869L8.6511 14.5328C8.18216 13.9946 7.37241 13.9459 6.84453 14.4123C6.31153 14.8787 6.25772 15.6884 6.7241 16.2189L10.2475 20.2471L6.67541 24.8391C6.23978 25.3978 6.34228 26.2024 6.89835 26.638C7.1341 26.8199 7.41341 26.9071 7.6876 26.9071C8.06941 26.9071 8.4461 26.7379 8.69978 26.4125L11.967 22.21L15.6928 26.4663C15.9465 26.7584 16.3002 26.9071 16.6563 26.9071C16.9562 26.9071 17.256 26.802 17.4994 26.5893C18.0324 26.1229 18.0862 25.3132 17.6198 24.7828Z" fill="#FAFAFA"/>
</svg>
