<svg width="24" height="27" viewBox="0 0 24 27" fill="none" xmlns="http://www.w3.org/2000/svg">
<path d="M10.8187 6.26255C10.469 6.26898 10.1194 6.30542 9.77786 6.37125L9.76107 6.37449C7.01094 6.91442 5.02176 9.29696 5.02176 12.0391C5.02176 12.3839 4.73808 12.6553 4.3982 12.6553C4.0586 12.6553 3.77465 12.384 3.77465 12.0391C3.77465 8.98872 5.79576 6.31663 8.68418 5.38182C8.64226 5.27078 8.60887 5.15599 8.58465 5.03821L8.58462 5.03807C8.46086 4.43443 8.58486 3.81923 8.93253 3.30788L8.93254 3.30786C9.27985 2.79715 9.80958 2.44989 10.4213 2.32923L10.4216 2.32918C11.1255 2.19117 11.833 2.37488 12.3643 2.80168C13.5065 1.54355 15.1706 0.75 17.0196 0.75C20.4502 0.75 23.25 3.48293 23.25 6.8538C23.25 7.19862 22.9663 7.47001 22.6264 7.47001C22.2868 7.47001 22.0029 7.19871 22.0029 6.8538C22.0029 4.17294 19.7724 1.98242 17.0196 1.98242C14.267 1.98242 12.0365 4.17294 12.0365 6.85361C12.0365 9.53447 14.267 11.725 17.0198 11.725C18.1208 11.725 19.1625 11.3817 20.0349 10.7325L20.1757 10.9217L20.0349 10.7325C20.8794 10.104 21.5073 9.21267 21.8031 8.22498C21.9015 7.89594 22.2495 7.71447 22.5754 7.80831L22.5754 7.80833C22.903 7.90273 23.0981 8.24366 22.9988 8.57489C22.6268 9.81673 21.8406 10.9317 20.7851 11.717C19.9822 12.3145 19.0638 12.7039 18.0873 12.8679V14.477C18.0873 15.6119 18.598 16.6809 19.4916 17.4102C19.4916 17.4102 19.4916 17.4102 19.4916 17.4102L19.941 17.777C20.6216 18.3324 21.0139 19.1502 21.0139 20.0209V20.0438C21.0139 21.6446 19.6854 22.9375 18.0634 22.9375H14.4019C14.3259 24.7815 12.7716 26.25 10.882 26.25C8.99233 26.25 7.43785 24.7815 7.36177 22.9375H3.7007C2.07851 22.9375 0.75 21.6446 0.75 20.0438C0.75 19.609 0.850886 19.1731 1.04231 18.7822C1.23346 18.3909 1.5164 18.0412 1.86016 17.7701C1.86017 17.77 1.86019 17.77 1.8602 17.77L2.3211 17.4057L2.32125 17.4056C3.24638 16.6754 3.77465 15.5922 3.77465 14.4326V13.6298C3.77465 13.2849 4.0586 13.0136 4.3982 13.0136C4.73808 13.0136 5.02176 13.285 5.02176 13.6298V14.4326C5.02176 15.9702 4.32009 17.4052 3.09986 18.3682L10.8187 6.26255ZM10.8187 6.26255C10.7994 6.45705 10.7894 6.65428 10.7894 6.8538C10.7894 10.1657 13.492 12.8617 16.84 12.9551V14.477C16.84 15.9824 17.5181 17.398 18.6972 18.3604L18.6972 18.3605L19.1466 18.7272L19.1467 18.7273C19.5417 19.0496 19.7666 19.5212 19.7666 20.0209V20.0438C19.7666 20.9546 19.0074 21.7051 18.0632 21.7051H3.70051C2.75632 21.7051 1.99711 20.9546 1.99711 20.0438C1.99711 19.7941 2.05533 19.5429 2.16507 19.3186L2.16509 19.3186C2.27534 19.0931 2.43915 18.8903 2.63861 18.7328L2.63875 18.7327L3.0997 18.3684L10.8187 6.26255ZM9.78946 6.36868C9.78981 6.36859 9.7881 6.36902 9.78609 6.36948L9.78851 6.36891L9.78921 6.36874L9.78939 6.3687L9.78946 6.36868ZM9.80695 4.79302L9.80694 4.79299C9.74982 4.51483 9.80645 4.23259 9.96771 3.99517C10.1294 3.75747 10.3759 3.59481 10.6649 3.5379C11.0205 3.46805 11.375 3.57206 11.6269 3.80001C11.3987 4.18543 11.2121 4.59753 11.0735 5.03047C11.026 5.02956 10.9785 5.0291 10.931 5.0291C10.5934 5.0291 10.2556 5.05275 9.92179 5.09885C9.86801 5.00412 9.82915 4.9012 9.80695 4.79302ZM8.61056 22.9375H13.1532C13.0781 24.0921 12.0926 25.0174 10.882 25.0174C9.67114 25.0174 8.68559 24.0921 8.61056 22.9375Z" fill="#F26935" stroke="#F26935" stroke-width="0.5"/>
</svg>
