<svg width="25" height="25" viewBox="0 0 25 25" fill="none" xmlns="http://www.w3.org/2000/svg">
<path fill-rule="evenodd" clip-rule="evenodd" d="M7.14271 5.35712L12.4998 0L17.857 5.35712L12.4998 10.7142L7.14271 5.35712ZM10.7141 5.35712L12.4998 3.57142L14.2856 5.35712L12.4998 7.14283L10.7141 5.35712Z" fill="#F26935"/>
<path fill-rule="evenodd" clip-rule="evenodd" d="M0 12.4999L5.35714 7.14276L10.7143 12.4999L5.35714 17.857L0 12.4999ZM3.57143 12.4999L5.35714 10.7142L7.14285 12.4999L5.35714 14.2856L3.57143 12.4999Z" fill="#F26935"/>
<path fill-rule="evenodd" clip-rule="evenodd" d="M14.2857 12.4999L19.6429 17.857L25 12.4999L19.6429 7.14276L14.2857 12.4999ZM19.6429 10.7142L17.8571 12.4999L19.6429 14.2856L21.4286 12.4999L19.6429 10.7142Z" fill="#F26935"/>
<path fill-rule="evenodd" clip-rule="evenodd" d="M7.14271 19.6429L12.4998 14.2858L17.857 19.6429L12.4998 25L7.14271 19.6429ZM10.7141 19.6429L12.4998 17.8572L14.2856 19.6429L12.4998 21.4286L10.7141 19.6429Z" fill="#F26935"/>
</svg>
