<svg width="24" height="27" viewBox="0 0 24 27" fill="none" xmlns="http://www.w3.org/2000/svg">
<path d="M21.5425 9.68152L19.0688 8.78958C19.9632 8.05745 20.3451 6.89617 20.0713 5.79266C19.5332 3.62455 16.8647 2.8015 15.1789 4.27792L13.4709 5.77362L13.133 3.53046C12.7989 1.32201 10.218 0.259513 8.40232 1.57543C7.49446 2.23339 7.01153 3.36761 7.22569 4.51927L4.89342 3.67836C3.74596 3.26454 2.47238 3.85282 2.05465 4.98968L1.04472 7.73855C0.905277 8.1181 1.10283 8.53782 1.486 8.67591C1.64141 8.73191 12.8591 12.7766 13.0238 12.836C12.557 12.836 2.33284 12.836 1.88303 12.836C1.47531 12.836 1.14477 13.1634 1.14477 13.5674V23.806C1.14477 25.0158 2.1383 26 3.35949 26H9.26543H12.2184H18.1243C19.3455 26 20.339 25.0158 20.339 23.806V15.4736L20.9102 15.6796C21.2915 15.8172 21.7163 15.6236 21.8564 15.2425L22.8664 12.4936C23.2839 11.3568 22.6901 10.0953 21.5425 9.68152ZM8.52712 24.5374H3.35944C2.95236 24.5374 2.62118 24.2093 2.62118 23.806V14.2987H8.52712V24.5374ZM11.4801 24.5374H10.0036V14.2987H11.4801V24.5374ZM16.1567 5.37381C17.0131 4.62376 18.3651 5.04452 18.6375 6.14193C18.9279 7.31199 17.7863 8.32654 16.6437 7.91521C15.6718 7.56478 15.2164 7.40057 14.2431 7.04964L16.1567 5.37381ZM9.27405 2.75599C10.1967 2.08734 11.5037 2.62992 11.6729 3.74735L12.0514 6.25931C11.7789 6.16107 9.91905 5.49041 9.65106 5.39383C8.50834 4.98158 8.29251 3.46722 9.27405 2.75599ZM9.62184 10.0529L2.68467 7.55154L3.44215 5.48993C3.58139 5.11097 4.00592 4.91497 4.3884 5.05282C5.16471 5.3327 10.3924 7.21761 10.6318 7.30394L9.62184 10.0529ZM12.3967 11.0534L11.0093 10.5531L12.0193 7.80428L13.4067 8.30457L12.3967 11.0534ZM18.8625 23.806C18.8625 24.2093 18.5313 24.5374 18.1242 24.5374H12.9566V14.2987H17.0804L18.8625 14.9413V23.806H18.8625ZM21.4788 11.9933L20.7213 14.0549L13.7842 11.5536L14.7942 8.80476L21.0376 11.0559C21.4201 11.1938 21.618 11.6144 21.4788 11.9933Z" fill="#BD0C2E" stroke="#BD0C2E" stroke-width="0.3"/>
</svg>
