<svg width="25" height="25" viewBox="0 0 25 25" fill="none" xmlns="http://www.w3.org/2000/svg">
<path d="M14.0227 18.3977L13.8625 18.4302V18.5937V21.875V22.075H14.0625H16.9875V24.8H8.0125V22.075H10.9375H11.1375V21.875V18.5937V18.4302L10.9773 18.3977C7.50266 17.6924 4.8875 14.6201 4.8875 10.9375V0.2H20.1125V10.9375C20.1125 14.6201 17.4973 17.6924 14.0227 18.3977ZM7.8125 2.925H7.6125V3.125V10.9375C7.6125 13.6368 9.80071 15.825 12.5 15.825C15.1993 15.825 17.3875 13.6368 17.3875 10.9375V3.125V2.925H17.1875H7.8125ZM22.075 3.325H24.8V10.7375H22.075V3.325ZM0.2 10.7375V3.325H2.925V10.7375H0.2Z" fill="#BD0C2E" stroke="white" stroke-width="0.4"/>
</svg>
