<svg width="20" height="20" viewBox="0 0 20 20" fill="none" xmlns="http://www.w3.org/2000/svg">
<path fill-rule="evenodd" clip-rule="evenodd" d="M7.60039 2.79997C6.32735 2.79997 5.10645 3.30568 4.20628 4.20585C3.3061 5.10603 2.80039 6.32693 2.80039 7.59997C2.80039 8.87301 3.3061 10.0939 4.20628 10.9941C5.10645 11.8943 6.32735 12.4 7.60039 12.4C8.87343 12.4 10.0943 11.8943 10.9945 10.9941C11.8947 10.0939 12.4004 8.87301 12.4004 7.59997C12.4004 6.32693 11.8947 5.10603 10.9945 4.20585C10.0943 3.30568 8.87343 2.79997 7.60039 2.79997ZM0.400391 7.59997C0.400246 6.46681 0.667562 5.34962 1.1806 4.33926C1.69363 3.32889 2.4379 2.45388 3.35287 1.7854C4.26783 1.11691 5.32767 0.673822 6.44617 0.492167C7.56467 0.310512 8.71025 0.395421 9.78975 0.739988C10.8692 1.08455 11.8522 1.67905 12.6586 2.47512C13.465 3.2712 14.0721 4.24637 14.4306 5.32133C14.7891 6.39629 14.8888 7.54068 14.7216 8.66143C14.5544 9.78218 14.125 10.8476 13.4684 11.7712L19.2488 17.5516C19.4674 17.7779 19.5883 18.081 19.5856 18.3956C19.5829 18.7103 19.4567 19.0113 19.2342 19.2338C19.0117 19.4562 18.7107 19.5824 18.3961 19.5852C18.0814 19.5879 17.7783 19.467 17.552 19.2484L11.7728 13.4692C10.6956 14.2351 9.42841 14.6898 8.11 14.7833C6.79159 14.8769 5.47288 14.6057 4.29835 13.9995C3.12382 13.3934 2.13881 12.4756 1.45126 11.3468C0.763703 10.218 0.400134 8.92169 0.400391 7.59997Z" fill="#79321B" fill-opacity="0.3"/>
</svg>
