<svg width="9" height="5" viewBox="0 0 9 5" fill="none" xmlns="http://www.w3.org/2000/svg">
<path d="M4.41659 4.88742C4.29165 4.88767 4.17057 4.84247 4.07437 4.75966L0.866022 1.9823C0.756822 1.88801 0.688151 1.75252 0.675114 1.60564C0.662078 1.45876 0.705744 1.31252 0.796508 1.19908C0.887271 1.08564 1.0177 1.01431 1.15909 1.00076C1.30049 0.987221 1.44127 1.03258 1.55047 1.12687L4.41659 3.61539L7.28271 1.21574C7.33741 1.1696 7.40034 1.13515 7.4679 1.11435C7.53545 1.09356 7.6063 1.08684 7.67636 1.09459C7.74643 1.10233 7.81433 1.12438 7.87616 1.15947C7.93799 1.19456 7.99254 1.242 8.03667 1.29906C8.08564 1.35618 8.12273 1.42318 8.14561 1.49588C8.16849 1.56858 8.17668 1.6454 8.16965 1.72153C8.16262 1.79767 8.14053 1.87148 8.10477 1.93833C8.069 2.00519 8.02033 2.06365 7.96181 2.11005L4.75346 4.79299C4.6545 4.86271 4.53589 4.89596 4.41659 4.88742Z" fill="black"/>
</svg>
