<svg width="25" height="25" viewBox="0 0 25 25" fill="none" xmlns="http://www.w3.org/2000/svg">
<path d="M10 12.5C10 13.1904 9.44036 13.75 8.75 13.75C8.05964 13.75 7.5 13.1904 7.5 12.5C7.5 11.8096 8.05964 11.25 8.75 11.25C9.44036 11.25 10 11.8096 10 12.5Z" fill="#F26935"/>
<path d="M16.25 13.75C16.9404 13.75 17.5 13.1904 17.5 12.5C17.5 11.8096 16.9404 11.25 16.25 11.25C15.5596 11.25 15 11.8096 15 12.5C15 13.1904 15.5596 13.75 16.25 13.75Z" fill="#F26935"/>
<path fill-rule="evenodd" clip-rule="evenodd" d="M12.5305 3.63702e-05L12.5 0C5.59644 0 0 5.59644 0 12.5C0 19.4036 5.59644 25 12.5 25C19.4036 25 25 19.4036 25 12.5C25 5.92793 19.9281 0.540467 13.485 0.0382358L13.4857 0.0352561C13.1661 0.0111381 12.8475 -0.000489136 12.5305 3.63702e-05ZM12.5 22.5C18.0228 22.5 22.5 18.0228 22.5 12.5C22.5 11.6267 22.3881 10.7796 22.1778 9.97219C17.6997 10.2891 13.4199 8.15577 10.9506 4.50308C9.14153 6.34858 6.62275 7.49583 3.83599 7.50317C2.98627 8.97332 2.5 10.6799 2.5 12.5C2.5 18.0228 6.97715 22.5 12.5 22.5ZM12.4731 2.50004L12.5295 2.50004L12.5 2.5L12.4731 2.50004Z" fill="#F26935"/>
</svg>
