<svg width="27" height="25" viewBox="0 0 27 25" fill="none" xmlns="http://www.w3.org/2000/svg">
<path d="M25.9937 5.43933H20.0314V0.784519C20.0314 0.351255 19.6801 0 19.2469 0H0.784519C0.351255 0 0 0.351255 0 0.784519V21.0774C0 23.2403 1.75968 25 3.92259 25H22.8556C25.0186 25 26.7782 23.2403 26.7782 21.0774V6.22385C26.7782 5.79059 26.427 5.43933 25.9937 5.43933ZM3.92259 23.431C2.62484 23.431 1.56904 22.3752 1.56904 21.0774V1.56904H18.4623C18.4623 22.3047 18.4525 21.1519 18.4803 21.4475C18.5485 22.1748 18.8198 22.8607 19.2487 23.431H3.92259ZM25.2092 21.0774C25.2092 22.3752 24.1534 23.431 22.8556 23.431C22.6796 23.431 22.5578 23.431 22.3849 23.431C21.0872 23.431 20.0314 22.3752 20.0314 21.0774V7.00837H25.2092V21.0774Z" fill="#BD0C2E"/>
<path d="M15.8994 3.76562H4.18393C3.75067 3.76562 3.39941 4.11688 3.39941 4.55014C3.39941 4.98341 3.75067 5.33466 4.18393 5.33466H15.8994C16.3327 5.33466 16.6839 4.98341 16.6839 4.55014C16.6839 4.11688 16.3327 3.76562 15.8994 3.76562Z" fill="#BD0C2E"/>
<path d="M15.8994 7.11304H4.18393C3.75067 7.11304 3.39941 7.46429 3.39941 7.89756C3.39941 8.33082 3.75067 8.68207 4.18393 8.68207H15.8994C16.3327 8.68207 16.6839 8.33082 16.6839 7.89756C16.6839 7.46429 16.3327 7.11304 15.8994 7.11304Z" fill="#BD0C2E"/>
<path d="M15.8994 19.6653H4.18393C3.75067 19.6653 3.39941 20.0165 3.39941 20.4498C3.39941 20.8831 3.75067 21.2343 4.18393 21.2343H15.8994C16.3327 21.2343 16.6839 20.8831 16.6839 20.4498C16.6839 20.0165 16.3327 19.6653 15.8994 19.6653Z" fill="#BD0C2E"/>
<path d="M15.8996 10.4602H10.0418C9.60858 10.4602 9.25732 10.8115 9.25732 11.2447V17.1025C9.25732 17.5357 9.60858 17.887 10.0418 17.887H15.8996C16.3328 17.887 16.6841 17.5357 16.6841 17.1025V11.2447C16.6841 10.8115 16.3328 10.4602 15.8996 10.4602ZM15.1151 16.3179H10.8264V12.0292H15.1151V16.3179Z" fill="#BD0C2E"/>
<path d="M4.18393 13.2846H6.69439C7.12766 13.2846 7.47891 12.9334 7.47891 12.5001C7.47891 12.0668 7.12766 11.7156 6.69439 11.7156H4.18393C3.75067 11.7156 3.39941 12.0668 3.39941 12.5001C3.39941 12.9334 3.75067 13.2846 4.18393 13.2846Z" fill="#BD0C2E"/>
<path d="M4.18393 16.6318H6.69439C7.12766 16.6318 7.47891 16.2805 7.47891 15.8473C7.47891 15.414 7.12766 15.0627 6.69439 15.0627H4.18393C3.75067 15.0627 3.39941 15.414 3.39941 15.8473C3.39941 16.2805 3.75067 16.6318 4.18393 16.6318Z" fill="#BD0C2E"/>
</svg>
