<svg width="19" height="25" viewBox="0 0 19 25" fill="none" xmlns="http://www.w3.org/2000/svg">
<path fill-rule="evenodd" clip-rule="evenodd" d="M14.9286 5.55556C14.9286 8.6238 12.4981 11.1111 9.5 11.1111C6.50188 11.1111 4.07143 8.6238 4.07143 5.55556C4.07143 2.48731 6.50188 0 9.5 0C12.4981 0 14.9286 2.48731 14.9286 5.55556ZM12.2143 5.55556C12.2143 7.08968 10.9991 8.33333 9.5 8.33333C8.00094 8.33333 6.78571 7.08968 6.78571 5.55556C6.78571 4.02143 8.00094 2.77778 9.5 2.77778C10.9991 2.77778 12.2143 4.02143 12.2143 5.55556Z" fill="#F26935"/>
<path d="M16.2857 16.6667C16.2857 15.8996 15.6781 15.2778 14.9286 15.2778H4.07143C3.3219 15.2778 2.71429 15.8996 2.71429 16.6667V25H0V16.6667C0 14.3655 1.82284 12.5 4.07143 12.5H14.9286C17.1772 12.5 19 14.3655 19 16.6667V25H16.2857V16.6667Z" fill="#F26935"/>
</svg>
