<svg width="20" height="27" viewBox="0 0 20 27" fill="none" xmlns="http://www.w3.org/2000/svg">
<path d="M6.64794 25.9999H6.64294C6.57284 25.999 6.50458 25.9774 6.44666 25.9379C6.38874 25.8984 6.34373 25.8427 6.31724 25.7778L5.16691 22.96L2.40197 24.2218C2.33608 24.2519 2.2626 24.2612 2.19127 24.2486C2.11994 24.2359 2.05415 24.2019 2.00262 24.151C1.95109 24.1001 1.91626 24.0347 1.90275 23.9635C1.88924 23.8923 1.89769 23.8187 1.92698 23.7525L4.93727 16.9416C4.97558 16.8549 5.04676 16.787 5.13513 16.7528C5.22351 16.7186 5.32184 16.721 5.40851 16.7593C5.49518 16.7976 5.56307 16.8688 5.59726 16.9571C5.63146 17.0455 5.62914 17.1438 5.59083 17.2305L2.96089 23.1818L5.21084 22.1557C5.25462 22.1358 5.30198 22.1248 5.35009 22.1236C5.39819 22.1224 5.44605 22.1309 5.49078 22.1487C5.53551 22.1664 5.57619 22.193 5.61038 22.2269C5.64458 22.2608 5.67157 22.3012 5.68975 22.3457L6.66294 24.7289L9.48431 18.3308C9.52252 18.2442 9.59361 18.1762 9.68191 18.142C9.77022 18.1077 9.86852 18.1099 9.95519 18.1482C10.0419 18.1864 10.1098 18.2575 10.144 18.3458C10.1783 18.4341 10.1761 18.5324 10.1379 18.619L6.97579 25.7857C6.94796 25.8494 6.90211 25.9037 6.84386 25.9418C6.78562 25.9798 6.71753 26 6.64794 25.9999Z" fill="#BD0C2E" stroke="#BD0C2E" stroke-width="0.8"/>
<path d="M8.07662 19.3702C7.96125 19.3707 7.84632 19.3559 7.73484 19.3262C7.20164 19.1834 6.84522 18.7191 6.53058 18.3084C6.35843 18.0457 6.14073 17.8159 5.88774 17.6298C5.59427 17.4994 5.27977 17.4227 4.95919 17.4034C4.42706 17.332 3.87672 17.2584 3.49494 16.8759C3.11316 16.4934 3.03816 15.9424 2.96709 15.4099C2.94726 15.09 2.87059 14.7761 2.74067 14.4831C2.5543 14.2304 2.32455 14.0127 2.06212 13.8403C1.65141 13.5256 1.18642 13.1692 1.04392 12.6364C0.907142 12.1246 1.11535 11.6168 1.3182 11.1261C1.46482 10.832 1.55725 10.514 1.59105 10.1872C1.5572 9.86046 1.46477 9.54253 1.3182 9.2486C1.11607 8.7579 0.907142 8.24863 1.04392 7.73828C1.18678 7.20544 1.65105 6.84902 2.06212 6.53438C2.32481 6.36139 2.55458 6.14298 2.74067 5.8894C2.87067 5.59655 2.94723 5.2828 2.96674 4.96299C3.03816 4.4305 3.10959 3.88016 3.49458 3.49874C3.87957 3.11732 4.42777 3.04232 4.95883 2.97089C5.27941 2.95161 5.59392 2.87492 5.88738 2.74447C6.14024 2.55823 6.35791 2.32846 6.53022 2.06591C6.8445 1.65521 7.20128 1.19022 7.73413 1.04772C8.2459 0.909514 8.75374 1.11915 9.24445 1.322C9.53886 1.46729 9.85702 1.55838 10.1837 1.59093C10.5105 1.55722 10.8286 1.46491 11.1226 1.31843C11.6133 1.11629 12.1226 0.907014 12.6326 1.0438C13.1658 1.18665 13.5222 1.65092 13.8368 2.06199C14.0091 2.32457 14.2268 2.55435 14.4797 2.74054C14.7726 2.87082 15.0865 2.9474 15.4064 2.96661C15.9386 3.03804 16.4889 3.1116 16.8707 3.49445C17.2525 3.8773 17.3275 4.428 17.3985 4.9587C17.4181 5.27923 17.4948 5.59369 17.625 5.88725C17.8112 6.14015 18.0409 6.35783 18.3035 6.5301C18.7142 6.84473 19.1792 7.20151 19.3217 7.734C19.4585 8.24613 19.2503 8.75361 19.0474 9.24467C18.9009 9.5386 18.8084 9.85653 18.7746 10.1832C18.8083 10.5099 18.9008 10.8279 19.0474 11.1218C19.2496 11.6128 19.4585 12.1217 19.3217 12.6325C19.1789 13.1649 18.7146 13.5217 18.3035 13.8364C18.0409 14.0086 17.8112 14.2263 17.625 14.4792C17.4951 14.7721 17.4185 15.0858 17.3989 15.4056C17.3275 15.9381 17.2543 16.4888 16.8711 16.8716C16.4878 17.2545 15.9379 17.3281 15.4068 17.3991C15.0868 17.4187 14.7729 17.4955 14.48 17.6259C14.2272 17.8121 14.0095 18.0419 13.8372 18.3045C13.5229 18.7148 13.1661 19.1802 12.6333 19.3227C12.1208 19.4601 11.6137 19.2512 11.123 19.0484C10.8286 18.9029 10.5104 18.8118 10.1837 18.7795C9.85688 18.813 9.53881 18.9053 9.2448 19.0519C8.87946 19.232 8.48283 19.3401 8.07662 19.3702ZM8.07662 1.71485C8.0235 1.7144 7.97056 1.72088 7.91912 1.73414C7.62091 1.81378 7.36663 2.14556 7.09771 2.49662C6.87132 2.83606 6.58135 3.12846 6.2438 3.35767C5.87132 3.53899 5.46719 3.64632 5.05383 3.67373C4.67794 3.67716 4.3112 3.79009 3.9985 3.99873C3.78962 4.31131 3.67666 4.67812 3.67351 5.05406C3.64609 5.46727 3.53888 5.87125 3.3578 6.24367C3.12801 6.58134 2.835 6.87132 2.49496 7.09758C2.1439 7.36686 1.81248 7.62114 1.73248 7.91899C1.71111 8.2865 1.79604 8.65238 1.97712 8.9729C2.16351 9.35145 2.2745 9.76265 2.3039 10.1836C2.2746 10.6045 2.16361 11.0157 1.97712 11.3943C1.7959 11.7149 1.71096 12.0809 1.73248 12.4485C1.81248 12.7467 2.1439 13.0007 2.49496 13.2699C2.835 13.4962 3.12801 13.7862 3.3578 14.1238C3.53904 14.4962 3.64626 14.9002 3.67351 15.3135C3.67709 15.6895 3.79014 16.0563 3.99886 16.3692C4.31157 16.5777 4.67832 16.6905 5.05419 16.6938C5.46744 16.7212 5.87144 16.8285 6.2438 17.0098C6.58161 17.2394 6.87152 17.5324 7.09735 17.8727C7.36663 18.2234 7.62091 18.5552 7.91876 18.6348C8.28612 18.6557 8.65175 18.5708 8.97231 18.3902C9.35123 18.2043 9.76266 18.094 10.1837 18.0652C10.6047 18.0945 11.016 18.2053 11.3948 18.3916C11.7151 18.5731 12.0811 18.658 12.4487 18.6362C12.7469 18.5566 13.0011 18.2248 13.2701 17.8738C13.4961 17.5338 13.786 17.2408 14.1236 17.0113C14.4961 16.8298 14.9002 16.7224 15.3136 16.6949C15.6895 16.6918 16.0563 16.579 16.3689 16.3702C16.5777 16.0576 16.6906 15.6908 16.6939 15.3149C16.7213 14.9017 16.8285 14.4977 17.0096 14.1253C17.2393 13.7874 17.5323 13.4973 17.8725 13.271C18.2235 13.0017 18.5549 12.7478 18.6349 12.4496C18.6563 12.0821 18.5714 11.7162 18.3903 11.3957C18.2038 11.0172 18.0928 10.606 18.0635 10.185C18.0929 9.76408 18.2039 9.35288 18.3903 8.97432C18.5716 8.65388 18.6565 8.28794 18.6349 7.92042C18.5549 7.62221 18.2235 7.36829 17.8725 7.09901C17.5324 6.87274 17.2394 6.58277 17.0096 6.2451C16.8284 5.87272 16.7212 5.46871 16.6939 5.05549C16.6904 4.67945 16.5773 4.31259 16.3686 3.9998C16.0559 3.79105 15.6891 3.67821 15.3132 3.67516C14.8999 3.64713 14.4959 3.53932 14.1236 3.35767C13.786 3.12797 13.4961 2.83494 13.2701 2.49483C13.0008 2.14377 12.7465 1.81235 12.4487 1.73235C12.0812 1.71122 11.7155 1.79627 11.3951 1.97735C11.0163 2.16401 10.6049 2.27535 10.1837 2.3052C9.76271 2.27575 9.35143 2.16489 8.97267 1.97877C8.69183 1.83879 8.3885 1.74945 8.07662 1.71485Z" fill="#BD0C2E" stroke="#BD0C2E" stroke-width="0.8"/>
<path d="M10.1835 16.2803C8.97793 16.2803 7.79945 15.9229 6.79705 15.2532C5.79465 14.5835 5.01335 13.6316 4.55197 12.5178C4.09058 11.4041 3.96982 10.1785 4.20497 8.99616C4.44011 7.81378 5.0206 6.72769 5.87301 5.87522C6.72543 5.02275 7.81149 4.4422 8.99386 4.20699C10.1762 3.97178 11.4018 4.09246 12.5156 4.55378C13.6293 5.0151 14.5813 5.79634 15.2511 6.7987C15.9208 7.80106 16.2783 8.97953 16.2783 10.1851C16.2765 11.801 15.6338 13.3502 14.4912 14.4929C13.3486 15.6356 11.7994 16.2784 10.1835 16.2803ZM10.1835 4.80447C9.11918 4.8044 8.07878 5.11994 7.19384 5.71118C6.30889 6.30241 5.61915 7.1428 5.21183 8.12605C4.80452 9.10931 4.69793 10.1913 4.90554 11.2351C5.11315 12.2789 5.62564 13.2378 6.3782 13.9903C7.13076 14.7429 8.08959 15.2554 9.13342 15.463C10.1773 15.6706 11.2592 15.564 12.2425 15.1567C13.2257 14.7494 14.0661 14.0596 14.6573 13.1747C15.2486 12.2897 15.5641 11.2493 15.5641 10.1851C15.5624 8.75853 14.995 7.39089 13.9863 6.38218C12.9776 5.37348 11.61 4.80608 10.1835 4.80447Z" fill="#BD0C2E" stroke="#BD0C2E" stroke-width="0.8"/>
<path d="M13.7191 25.9999C13.6497 25.9998 13.5819 25.9795 13.5238 25.9415C13.4658 25.9034 13.4201 25.8493 13.3924 25.7857L10.2296 18.619C10.1914 18.5324 10.1891 18.4341 10.2234 18.3458C10.2577 18.2575 10.3256 18.1864 10.4123 18.1482C10.4989 18.1099 10.5972 18.1077 10.6855 18.142C10.7738 18.1762 10.8449 18.2442 10.8831 18.3308L13.7045 24.7289L14.6777 22.3457C14.6959 22.3012 14.7229 22.2608 14.7571 22.2269C14.7913 22.193 14.8319 22.1664 14.8767 22.1487C14.9214 22.1309 14.9692 22.1224 15.0174 22.1236C15.0655 22.1248 15.1128 22.1358 15.1566 22.1557L17.4066 23.1818L14.7763 17.2305C14.7573 17.1876 14.747 17.1414 14.7459 17.0945C14.7447 17.0475 14.7529 17.0009 14.7698 16.9571C14.7868 16.9134 14.8121 16.8734 14.8445 16.8394C14.8769 16.8055 14.9157 16.7782 14.9586 16.7593C15.0015 16.7403 15.0477 16.73 15.0946 16.7289C15.1415 16.7278 15.1882 16.7359 15.232 16.7528C15.2757 16.7698 15.3157 16.7951 15.3497 16.8275C15.3836 16.8599 15.4108 16.8987 15.4298 16.9416L18.439 23.7525C18.4683 23.8187 18.4768 23.8923 18.4633 23.9635C18.4498 24.0347 18.4149 24.1001 18.3634 24.151C18.3119 24.2019 18.2461 24.2359 18.1747 24.2486C18.1034 24.2612 18.0299 24.2519 17.964 24.2218L15.1991 22.96L14.0488 25.7778C14.0223 25.8427 13.9773 25.8984 13.9194 25.9379C13.8614 25.9774 13.7932 25.999 13.7231 25.9999H13.7191Z" fill="#BD0C2E" stroke="#BD0C2E" stroke-width="0.8"/>
<path d="M12.1371 13.3665C12.0792 13.3665 12.0222 13.3524 11.971 13.3254L10.1835 12.3858L8.39785 13.3254C8.33889 13.3563 8.27245 13.3701 8.20605 13.3653C8.13964 13.3604 8.07592 13.3371 8.02206 13.298C7.96821 13.2588 7.92637 13.2054 7.90127 13.1437C7.87617 13.0821 7.8688 13.0146 7.88001 12.949L8.22143 10.959L6.77539 9.54943C6.72764 9.5029 6.69386 9.44393 6.67788 9.37919C6.66191 9.31446 6.66437 9.24655 6.685 9.18314C6.70563 9.11974 6.74359 9.06337 6.7946 9.02043C6.8456 8.97749 6.90761 8.94968 6.9736 8.94016L8.97177 8.65016L9.86461 6.83949C9.89749 6.78389 9.9443 6.73782 10.0004 6.70582C10.0565 6.67381 10.12 6.65698 10.1846 6.65698C10.2492 6.65698 10.3127 6.67381 10.3688 6.70582C10.4249 6.73782 10.4717 6.78389 10.5046 6.83949L11.3974 8.65016L13.3956 8.94016C13.4616 8.94968 13.5236 8.97749 13.5746 9.02043C13.6256 9.06337 13.6636 9.11974 13.6842 9.18314C13.7048 9.24655 13.7073 9.31446 13.6913 9.37919C13.6753 9.44393 13.6416 9.5029 13.5938 9.54943L12.1478 10.959L12.4892 12.949C12.498 13.0002 12.4955 13.0528 12.4818 13.1029C12.4682 13.1531 12.4438 13.1997 12.4103 13.2395C12.3768 13.2792 12.335 13.3112 12.2879 13.3331C12.2408 13.3551 12.1894 13.3664 12.1374 13.3665H12.1371ZM10.1835 11.6254C10.2414 11.6254 10.2984 11.6393 10.3496 11.6662L11.6628 12.3576L11.4128 10.8958C11.403 10.8387 11.4073 10.7802 11.4252 10.7251C11.4431 10.67 11.4742 10.6202 11.5156 10.5798L12.5774 9.54407L11.1099 9.32979C11.0526 9.32143 10.9982 9.29925 10.9513 9.26515C10.9044 9.23105 10.8666 9.18607 10.841 9.13408L10.1835 7.80447L9.52711 9.13444C9.50153 9.18643 9.46368 9.23141 9.41683 9.26551C9.36997 9.2996 9.31553 9.32179 9.25819 9.33015L7.79073 9.54443L8.85249 10.5801C8.89397 10.6205 8.92501 10.6704 8.94292 10.7255C8.96084 10.7805 8.9651 10.8391 8.95534 10.8962L8.70535 12.3579L10.0185 11.6676C10.0693 11.6404 10.1259 11.626 10.1835 11.6254Z" fill="#BD0C2E" stroke="#BD0C2E" stroke-width="0.8"/>
</svg>
