<svg width="13" height="14" viewBox="0 0 13 14" fill="none" xmlns="http://www.w3.org/2000/svg">
<path d="M6.41659 8.88742C6.29165 8.88767 6.17057 8.84247 6.07437 8.75966L2.86602 5.9823C2.75682 5.88801 2.68815 5.75252 2.67511 5.60564C2.66208 5.45876 2.70574 5.31252 2.79651 5.19908C2.88727 5.08564 3.0177 5.01431 3.15909 5.00076C3.30049 4.98722 3.44127 5.03258 3.55047 5.12687L6.41659 7.61539L9.28271 5.21574C9.33741 5.1696 9.40034 5.13515 9.4679 5.11435C9.53545 5.09356 9.6063 5.08684 9.67636 5.09459C9.74643 5.10233 9.81433 5.12438 9.87616 5.15947C9.93799 5.19456 9.99254 5.242 10.0367 5.29906C10.0856 5.35618 10.1227 5.42318 10.1456 5.49588C10.1685 5.56858 10.1767 5.6454 10.1696 5.72153C10.1626 5.79767 10.1405 5.87148 10.1048 5.93833C10.069 6.00519 10.0203 6.06365 9.96181 6.11005L6.75346 8.79299C6.6545 8.86271 6.53589 8.89596 6.41659 8.88742Z" fill="black"/>
</svg>
