<svg width="258" height="52" viewBox="0 0 258 52" fill="none" xmlns="http://www.w3.org/2000/svg">
<g clip-path="url(#clip0)">
<path d="M48.013 16.9503C48.7314 17.0106 49.4532 17.0106 50.1716 16.9503C51.4881 16.7337 52.0815 17.3414 52.5674 18.593C54.8898 24.55 57.3026 30.4648 59.6871 36.3917C61.6535 41.2776 63.6425 46.1635 65.6146 51.0313C65.9254 51.7895 65.8463 52.0061 65.0495 51.9941C63.0436 51.964 61.032 51.9941 59.0204 51.9941C58.7988 52.0275 58.5733 51.9739 58.3861 51.8432C58.1989 51.7126 58.0628 51.5138 58.0033 51.284C57.6077 50.1649 57.1218 49.0878 56.6923 47.9867C56.6274 47.7562 56.4908 47.5562 56.3049 47.4195C56.119 47.2828 55.8949 47.2175 55.6696 47.2345C51.7142 47.2646 47.7079 46.9999 43.7355 47.3789C42.2663 47.5585 40.8522 48.0803 39.5937 48.9073C38.8538 49.4034 38.3278 50.1906 38.1302 51.0975C38.0754 51.3911 37.9142 51.6498 37.6815 51.8177C37.4488 51.9855 37.1633 52.0489 36.887 51.9941C34.915 51.9941 32.9316 51.9459 30.9709 51.9941C30.0498 51.9941 30.1628 51.5669 30.4058 50.9832C31.6489 47.9205 32.909 44.8638 34.1408 41.795C36.1016 36.8971 38.0341 31.9751 40.0118 27.0772C41.2549 23.9844 42.5659 20.9216 43.8033 17.8228C43.8913 17.52 44.0814 17.2627 44.3371 17.1004C44.5928 16.9382 44.8958 16.8826 45.1877 16.9443C46.1314 16.9985 47.0807 16.9443 48.013 16.9443V16.9503Z" fill="#ED6920"/>
<path d="M240.184 16.95H242.229C244.128 16.95 244.083 16.95 244.828 18.8214C247.654 25.8494 250.519 32.8593 253.361 39.8813C254.881 43.63 256.373 47.3907 257.881 51.1394C258.124 51.7411 257.96 51.9517 257.384 51.9517C255.299 51.9517 253.208 51.9517 251.123 51.9517C250.916 51.9644 250.711 51.9016 250.541 51.7737C250.372 51.6457 250.248 51.4602 250.191 51.2477C249.801 50.2187 249.281 49.244 248.959 48.197C248.901 47.902 248.745 47.6392 248.52 47.4569C248.295 47.2745 248.015 47.1847 247.733 47.2042C243.484 47.162 239.217 46.807 235.008 47.4809C232.934 47.8059 230.894 48.6844 230.227 51.2537C230.178 51.4711 230.056 51.6621 229.885 51.7915C229.714 51.9209 229.504 51.9799 229.295 51.9577C227.204 51.9577 225.119 51.9577 223.029 51.9577C222.057 51.9577 222.463 51.2838 222.599 50.9047C223.198 49.3282 223.882 47.7938 224.515 46.2294C227.506 38.8043 230.495 31.3831 233.482 23.966C234.33 21.854 235.239 19.754 236.07 17.6541C236.136 17.426 236.275 17.23 236.463 17.1002C236.651 16.9704 236.876 16.9151 237.098 16.944C238.133 16.9861 239.155 16.95 240.184 16.95Z" fill="#F8AD34"/>
<path d="M99.2695 26.5598C97.9077 29.9234 96.6702 32.9439 95.4497 35.9766C93.4268 40.9868 91.4114 46.0011 89.4035 51.0194C89.3131 51.3398 89.1168 51.6144 88.8508 51.7925C88.5849 51.9706 88.2673 52.0401 87.957 51.9882C86.064 51.922 84.1654 51.94 82.2668 51.9882C81.4927 51.9882 81.2723 51.8979 81.634 51.0074C83.8942 45.4656 86.1262 39.8997 88.3695 34.3399C90.5393 28.9726 92.6639 23.5813 94.9411 18.2682C95.6418 16.6375 94.732 15.5244 94.28 14.2668C93.4663 12.0224 92.5396 9.82013 91.6016 7.64795C91.3191 6.98005 91.5621 6.86572 92.0876 6.86572C94.1783 6.86572 96.2634 6.86572 98.3484 6.86572C98.9813 6.86572 99.196 7.29294 99.3938 7.78033L104.039 19.2971C106.702 25.9079 109.365 32.5268 112.028 39.1536C113.605 43.0587 115.182 46.9759 116.792 50.8509C117.199 51.8257 116.973 52.0543 115.995 52.0543C114.176 51.9882 112.356 52.0182 110.531 52.0543C110.217 52.0986 109.898 52.0225 109.632 51.8394C109.366 51.6564 109.17 51.3785 109.079 51.0555C107.073 46.0492 105.005 41.0791 102.982 36.0789C101.761 32.9801 100.597 29.9294 99.2695 26.5598Z" fill="#EF7D24"/>
<path d="M119.12 34.4359C119.12 29.0205 119.12 23.569 119.12 18.1356C119.12 17.1728 119.38 16.9321 120.25 16.9321C125.562 16.9742 130.873 16.89 136.185 16.9803C139.389 17.0344 142.4 17.8287 144.491 20.6988C147.915 25.4103 147.463 35.0377 139.852 37.6611C138.569 38.0648 137.234 38.2516 135.897 38.2147C133.851 38.2147 131.8 38.2147 129.754 38.2147C129.336 38.2147 128.918 38.2147 128.5 38.2749C126.189 38.4855 125.974 38.7322 125.974 41.1571C125.974 44.3522 125.974 47.5473 125.974 50.7424C125.974 51.6449 125.782 52.03 124.844 51.9819C123.289 51.8976 121.731 51.8976 120.177 51.9819C119.222 52.036 119.047 51.6389 119.047 50.7424C119.08 45.3269 119.047 39.8754 119.047 34.442L119.12 34.4359Z" fill="#F08728"/>
<path d="M147.808 28.5392C147.808 25.0252 147.836 21.5112 147.808 17.9912C147.808 17.1308 148.068 16.9021 148.848 16.9262C150.441 16.9803 152.035 17.0044 153.628 16.9262C154.577 16.872 154.758 17.2752 154.758 18.1657C154.73 24.598 154.719 31.0303 154.758 37.4626C154.758 39.9597 155.397 42.2763 157.674 43.5219C159.251 44.3733 160.988 44.8354 162.755 44.8739C164.523 44.9125 166.276 44.5264 167.885 43.7445C170.213 42.6915 171.122 40.5434 171.122 37.932C171.122 31.4656 171.122 24.9931 171.122 18.5147C171.122 16.9503 171.122 16.9503 172.569 16.9442C174.015 16.9382 175.394 17.0104 176.779 16.9442C177.813 16.8781 178.157 17.203 178.146 18.3342C178.106 24.8086 178.146 31.277 178.146 37.7515C178.213 40.2353 177.682 42.6961 176.603 44.8998C174.812 48.3356 172.015 50.3513 168.438 51.284C165.636 52.0164 162.73 52.1757 159.872 51.7533C155.018 51.0613 151.08 48.9012 148.995 43.9611C148.272 42.2876 147.888 40.4716 147.864 38.63C147.864 35.2724 147.864 31.9149 147.864 28.5573L147.808 28.5392Z" fill="#F2912C"/>
<path d="M73.0112 16.9445C77.413 16.9445 81.8148 16.9445 86.2166 16.9445C87.0699 16.9445 87.4428 17.1129 87.3976 18.1178C87.3241 19.8327 87.358 21.5536 87.3976 23.2685C87.3976 24.1048 87.1546 24.3696 86.3522 24.3576C83.4704 24.3154 80.5886 24.3876 77.7012 24.3215C76.7462 24.3215 76.5033 24.6163 76.5089 25.6031C76.5428 33.8706 76.5089 42.1442 76.5089 50.4117C76.5089 51.9822 76.5089 51.9882 75.0059 51.9882C73.6045 51.9882 72.1806 51.9401 70.7962 51.9882C69.8921 52.0303 69.6661 51.7114 69.6661 50.7547C69.7 42.4089 69.6661 34.0572 69.7056 25.7054C69.7056 24.6283 69.4683 24.2673 68.3947 24.2974C65.5129 24.3816 62.6254 24.2974 59.7436 24.3455C58.9921 24.3455 58.6135 24.1771 58.6587 23.2986C58.6983 21.4934 58.6587 19.6883 58.6587 17.8831C58.6587 17.0648 58.9977 16.9023 59.6984 16.9023C64.1398 16.9324 68.5811 16.9023 73.0169 16.9023L73.0112 16.9445Z" fill="#EC6F22"/>
<path d="M214.547 16.95C218.949 16.95 223.351 16.9801 227.752 16.95C228.673 16.95 228.928 17.2508 228.882 18.1534C228.82 19.7901 228.82 21.4327 228.882 23.0694C228.922 24.0261 228.69 24.3811 227.701 24.3571C224.876 24.2849 222.006 24.3871 219.163 24.3029C218.124 24.3029 217.926 24.6218 217.932 25.6507C217.977 33.9965 217.932 42.3483 217.977 50.694C217.977 51.6688 217.762 52.0419 216.79 51.9877C215.276 51.9155 213.756 51.9095 212.242 51.9877C211.315 52.0358 211.111 51.6929 211.111 50.7843C211.145 42.4325 211.111 34.0868 211.162 25.741C211.162 24.5376 210.829 24.2909 209.767 24.321C206.885 24.3932 203.997 24.321 201.116 24.3571C200.375 24.3571 200.115 24.1284 200.132 23.3402C200.172 21.5832 200.183 19.8262 200.132 18.0692C200.098 17.1546 200.398 16.9259 201.262 16.9379C205.698 16.974 210.139 16.9379 214.575 16.9379L214.547 16.95Z" fill="#F5A430"/>
<path d="M181.711 34.436C181.711 29.0868 181.711 23.7316 181.711 18.3824C181.711 17.3594 181.96 16.9382 182.988 16.9924C184.463 17.0646 185.944 17.0586 187.424 16.9924C188.373 16.9443 188.662 17.3113 188.656 18.2981C188.656 26.5596 188.656 34.8272 188.628 43.0887C188.628 44.2921 188.854 44.6471 190.052 44.623C194.906 44.5388 199.759 44.623 204.613 44.5689C205.517 44.5689 205.8 44.8397 205.743 45.7723C205.687 47.4872 205.743 49.2081 205.743 50.923C205.743 51.645 205.608 52.0061 204.805 52.0061C197.448 51.978 190.091 51.978 182.734 52.0061C181.791 52.0061 181.706 51.4886 181.711 50.7184C181.711 45.2909 181.711 39.8615 181.711 34.43V34.436Z" fill="#F39D2F"/>
<path d="M7.01802 37.0834C8.43632 41.5842 11.5385 44.1174 15.8273 44.8455C20.0144 45.5555 23.5742 44.0332 26.3035 40.5493C27.2245 39.3459 27.2189 39.3459 28.0778 40.5493C28.9366 41.7527 29.7729 43.0705 30.7731 44.2318C31.4455 45.0381 31.2703 45.5736 30.6375 46.2234C26.4956 50.4535 21.5457 52.4873 15.8047 51.8856C9.28391 51.1996 4.40181 47.7759 1.59347 41.512C0.656697 39.5063 0.122647 37.3146 0.0253591 35.0769C-0.071929 32.8392 0.269679 30.6044 1.02841 28.515C1.16402 28.1119 1.27704 27.6967 1.40135 27.3116C2.4128 26.8543 2.44106 25.705 2.93266 24.9048C3.86268 24.8516 4.76227 24.5337 5.53757 23.9841C5.70261 23.8828 5.89074 23.832 6.08119 23.8373C6.27163 23.8426 6.457 23.9038 6.61683 24.0142C7.85996 24.6159 8.87707 27.2093 8.45893 28.6173C8.46631 28.6492 8.4623 28.6829 8.44768 28.7118C8.43306 28.7407 8.40888 28.7628 8.37982 28.7738C8.13994 28.8873 7.92503 29.053 7.74889 29.2603C7.57275 29.4675 7.43928 29.7117 7.35706 29.9772C6.56442 32.2533 6.44609 34.7335 7.01802 37.0834Z" fill="#EA561D"/>
<path d="M8.45895 28.5391C8.63977 26.9747 7.74697 25.8254 7.01805 24.6521C6.95265 24.4962 6.85225 24.3598 6.72568 24.255C6.59911 24.1501 6.45027 24.0801 6.29227 24.0509C6.13427 24.0218 5.97197 24.0345 5.81967 24.0879C5.66737 24.1413 5.52975 24.2338 5.41894 24.3572C4.71826 24.959 3.87633 25.3621 2.93268 24.8266C4.83385 21.6542 7.73485 19.3074 11.1147 18.2077C18.2232 15.6866 24.6761 16.9201 30.2646 22.3716C30.7505 22.8469 30.7901 23.1057 30.355 23.6111C29.2248 24.8988 28.1343 26.2165 27.0833 27.5704C26.586 28.2022 26.23 28.0818 25.7384 27.5704C22.0769 23.8277 17.8276 23.0515 13.0755 24.8085C11.1712 25.5366 9.74163 26.9386 8.45895 28.5391Z" fill="#E95E1C"/>
<path d="M102.705 7.08215C102.519 3.50798 105.333 0.0541541 109.316 0C111.067 0 112.745 0.740447 113.983 2.05845C115.221 3.37646 115.916 5.16406 115.916 7.028C115.916 8.89194 115.221 10.6795 113.983 11.9975C112.745 13.3156 111.067 14.056 109.316 14.056C105.457 14.056 102.519 10.5962 102.705 7.08215Z" fill="#F07F24"/>
<path d="M7.01805 37.0834C6.91567 37.0311 6.82703 36.9526 6.75999 36.855C6.69296 36.7573 6.64961 36.6436 6.63381 36.5238C6.5208 34.3938 6.32868 32.2517 6.88809 30.1697C7.08586 29.4417 7.36839 28.5993 8.38549 28.6955C6.91909 31.1943 6.42834 34.2046 7.01805 37.0834Z" fill="#E95E1C"/>
<path d="M2.93268 24.8086C2.85357 26.5656 2.45803 27.2154 1.40137 27.2154C1.92687 26.4573 2.2433 25.5066 2.93268 24.8086Z" fill="#E95E1C"/>
<path d="M42.5206 40.1402L47.9508 26.71C48.9284 28.5151 49.4426 30.23 50.1489 31.8847C51.0869 34.087 51.9571 36.3253 52.8443 38.5517C52.9686 38.8585 53.4093 39.3339 52.6126 39.364C49.3976 39.4598 46.1904 39.7511 43.0066 40.2365C42.8413 40.2271 42.678 40.1948 42.5206 40.1402Z" fill="#F6F6F6"/>
<path d="M240.088 26.8184C241.178 28.5814 241.704 30.3685 242.421 32.0472C243.325 34.1713 244.117 36.3375 245.026 38.4675C245.264 39.0692 245.348 39.2979 244.597 39.334C243.049 39.4122 241.506 39.6649 239.958 39.6709C238.409 39.677 237.036 40.0861 235.567 40.2125C235.002 40.2666 234.663 40.2125 234.968 39.4603C236.652 35.3326 238.319 31.1988 240.088 26.8184Z" fill="#F6F6F6"/>
<path d="M132.009 24.3271C133.523 24.3271 135.043 24.3271 136.558 24.3271C138.999 24.3933 140.18 26.1864 139.479 28.7015C139.367 29.2578 139.084 29.7582 138.675 30.1234C138.265 30.4887 137.753 30.6977 137.219 30.7173C135.705 30.8275 134.187 30.8536 132.67 30.7955C130.662 30.7287 128.652 30.8677 126.669 31.2107C126.144 31.325 125.974 31.2107 125.974 30.6631C125.974 28.7858 125.974 26.9084 125.974 25.0371C125.974 24.285 126.404 24.3271 126.867 24.3271H132.009Z" fill="#F6F6F6"/>
<path d="M7.04065 26.0122C7.37404 26.5417 7.36274 26.9088 7.10846 27.2156C7.08724 27.2423 7.06084 27.2636 7.03108 27.2783C7.00132 27.293 6.96891 27.3006 6.93612 27.3006C6.90332 27.3006 6.87092 27.293 6.84116 27.2783C6.8114 27.2636 6.78499 27.2423 6.76378 27.2156C6.48125 26.7583 6.76378 26.4815 7.04065 26.0122Z" fill="#E95E1C"/>
</g>
<defs>
<clipPath id="clip0">
<rect width="258" height="52" fill="white"/>
</clipPath>
</defs>
</svg>
