<svg width="67" height="48" viewBox="0 0 67 48" fill="none" xmlns="http://www.w3.org/2000/svg">
<path d="M60.7187 0H6.28129C2.81757 0 0 2.69141 0 6.00003V42C0 45.3086 2.81757 48 6.28129 48H60.7187C64.1824 48 67 45.3086 67 42V6.00003C67 2.69141 64.1824 0 60.7187 0ZM60.7187 3.99998C61.0032 3.99998 61.2738 4.05636 61.5212 4.15482L33.5 27.3535L5.47865 4.15482C5.72606 4.05649 5.99668 3.99998 6.28115 3.99998H60.7187ZM60.7187 43.9999H6.28129C5.12607 43.9999 4.18748 43.1035 4.18748 41.9998V8.38084L32.128 31.5117C32.5227 31.8378 33.0113 32 33.5 32C33.9887 32 34.4773 31.8379 34.872 31.5117L62.8125 8.38084V42C62.8124 43.1035 61.8739 43.9999 60.7187 43.9999Z" fill="white"/>
</svg>
