<svg width="60" height="53" viewBox="0 0 60 53" fill="none" xmlns="http://www.w3.org/2000/svg">
<g clip-path="url(#clip0)">
<path d="M53.0176 21.7618C54.2065 20.1528 53.9869 18.0593 52.4834 16.6707C51.8209 16.0589 51.544 15.1991 51.7427 14.3707C52.1935 12.4911 51.1325 10.609 49.1626 9.79378C48.2947 9.43458 47.6848 8.72136 47.5313 7.88557C47.1828 5.98896 45.4237 4.57256 43.2536 4.44099C42.2976 4.38302 41.4371 3.91244 40.9522 3.18224C39.8517 1.52495 37.6319 0.765356 35.5547 1.33521C34.639 1.58634 33.6447 1.42206 32.894 0.895889C31.1897 -0.298578 28.8095 -0.298681 27.1058 0.895889C26.3547 1.42216 25.3602 1.58644 24.4448 1.33511C22.3674 0.765873 20.148 1.52495 19.0475 3.18224C18.5624 3.91244 17.702 4.38302 16.7459 4.44099C14.5758 4.57256 12.8168 5.98906 12.4683 7.88568C12.3148 8.72136 11.705 9.43458 10.8371 9.79378C8.86716 10.609 7.80626 12.4911 8.25697 14.3708C8.4556 15.1991 8.17868 16.0589 7.51622 16.6707C6.01271 18.0593 5.7931 20.1529 6.98208 21.7617C7.50591 22.4708 7.59931 23.361 7.23181 24.1428C6.39767 25.9174 7.04911 27.9396 8.81583 29.0606C9.59419 29.5545 10.0454 30.3548 10.0224 31.2011C9.97036 33.122 11.4047 34.7998 13.5106 35.2814C14.132 35.4235 14.6719 35.7412 15.0589 36.1744L10.2161 46.5009C9.90216 47.1703 10.0499 47.919 10.6017 48.4551C11.1535 48.9911 11.9836 49.1922 12.7675 48.9796L18.0693 47.5425C18.2234 47.5006 18.391 47.5619 18.4667 47.688L21.065 52.0157C21.4331 52.6288 22.1344 52.9999 22.9129 52.9999C23.7711 52.9999 24.5247 52.5573 24.8532 51.8567L29.9006 41.0934C29.9667 41.0914 30.0327 41.0914 30.0988 41.0934L35.1462 51.8567C35.4599 52.526 36.1639 52.9632 36.983 52.9976C37.7894 53.033 38.5452 52.6637 38.9343 52.0156L41.5325 47.688C41.6084 47.5618 41.7753 47.5003 41.9301 47.5424L47.2318 48.9795C48.0161 49.192 48.8459 48.991 49.3976 48.455C49.9493 47.9189 50.0971 47.1702 49.7832 46.5009L44.9408 36.1742C45.3277 35.7411 45.8675 35.4234 46.489 35.2813C48.5949 34.7997 50.0293 33.1219 49.9772 31.2011C49.9544 30.3547 50.4054 29.5544 51.1839 29.0605C52.9505 27.9394 53.602 25.9173 52.7678 24.1428C52.4003 23.361 52.4937 22.4708 53.0176 21.7618ZM23.2288 51.2625C23.1574 51.4146 23.0127 51.443 22.9327 51.4464C22.8533 51.4496 22.7056 51.4337 22.6183 51.2881L20.0199 46.9602C19.5496 46.1772 18.5125 45.7979 17.5533 46.0578L12.2517 47.4949C12.0734 47.5431 11.9563 47.4626 11.9026 47.4103C11.8488 47.3581 11.7691 47.2475 11.8404 47.0953L16.1367 37.9337C17.106 39.1066 18.7263 39.7605 20.4322 39.5839C21.3847 39.4859 22.3279 39.8087 22.9564 40.4478C24.1567 41.6681 26.0034 42.1349 27.7046 41.718L23.2288 51.2625ZM48.0968 47.4103C48.0429 47.4627 47.9259 47.5431 47.7477 47.4949L42.4462 46.0578C41.4872 45.798 40.4498 46.1772 39.9794 46.9603L37.3811 51.288C37.2939 51.4335 37.1479 51.4488 37.0666 51.4464C36.9867 51.443 36.842 51.4146 36.7706 51.2625L32.2939 41.7161C32.7026 41.8164 33.1196 41.8676 33.5342 41.8676C34.8453 41.8675 36.1307 41.3752 37.0429 40.4478C37.6715 39.8087 38.6158 39.4857 39.5671 39.5839C41.2723 39.7598 42.8931 39.1062 43.8626 37.9335L48.1588 47.0955C48.2303 47.2476 48.1506 47.3581 48.0968 47.4103ZM51.5452 20.913C50.7036 22.052 50.5534 23.4821 51.1438 24.7384C51.663 25.8428 51.2576 27.1015 50.1579 27.7992C48.9074 28.5927 48.1826 29.8784 48.2193 31.2383C48.2517 32.4338 47.3589 33.4782 46.0482 33.7778C44.8215 34.0584 43.7916 34.7637 43.1742 35.7176C43.1729 35.7198 43.1715 35.722 43.1702 35.7241C43.039 35.9276 42.9255 36.1417 42.8341 36.366C42.3753 37.4912 41.1145 38.1797 39.771 38.0412C38.241 37.8833 36.7253 38.4024 35.7154 39.429C34.8275 40.3317 33.3711 40.5723 32.1741 40.0138C30.8413 39.3921 29.2082 39.3685 27.8248 40.0138C26.6275 40.5724 25.1713 40.3317 24.2835 39.429C23.2736 38.4022 21.7571 37.8834 20.2279 38.0412C18.8829 38.1794 17.6235 37.491 17.1649 36.366C17.0736 36.1421 16.9604 35.9286 16.8296 35.7255C16.8276 35.7222 16.8255 35.7189 16.8235 35.7155C16.2059 34.7627 15.1765 34.0582 13.9508 33.7777C12.64 33.4781 11.7473 32.4338 11.7796 31.2381C11.8164 29.8782 11.0916 28.5925 9.84099 27.7991C8.7413 27.1014 8.33595 25.8427 8.85509 24.7382C9.44548 23.482 9.29548 22.052 8.45372 20.9128C7.71368 19.9114 7.85032 18.6083 8.78618 17.7441C9.85048 16.7611 10.2954 15.3797 9.97634 14.0489C9.69591 12.879 10.3563 11.7075 11.5823 11.2001C12.9767 10.623 13.9565 9.47702 14.2032 8.13443C14.4201 6.95383 15.515 6.07219 16.8656 5.99031C18.4018 5.89725 19.7841 5.14127 20.5633 3.96792C21.2485 2.93639 22.6299 2.46374 23.9228 2.81817C25.3933 3.22147 26.9915 2.95792 28.1981 2.1123C29.2585 1.36896 30.7401 1.36896 31.8005 2.1123H31.8006C33.007 2.95782 34.6052 3.22147 36.0756 2.81828C37.3688 2.46353 38.7502 2.93629 39.4353 3.96792C40.2145 5.14127 41.5968 5.89725 43.1329 5.99031C44.4836 6.07219 45.5785 6.95383 45.7954 8.13432C46.0421 9.47702 47.0219 10.6231 48.4163 11.2001C49.6423 11.7075 50.3027 12.879 50.0222 14.0488C49.7031 15.3796 50.148 16.761 51.2124 17.7441C52.1486 18.6084 52.2852 19.9115 51.5452 20.913Z" fill="white"/>
<path d="M47.3468 21.8873C46.8662 21.8389 46.4295 22.1464 46.3755 22.5726C46.0069 25.481 44.6853 28.1065 42.7041 30.2194V29.7627C42.7041 27.7969 41.2126 26.0371 39.0773 25.4833L36.647 24.8531C36.4418 24.631 36.1612 24.4675 35.8377 24.3926C35.8199 24.3885 35.8019 24.385 35.7839 24.3818L33.5989 24.0045V22.608C34.8071 21.7943 35.6575 20.5818 35.8859 19.1862C36.5287 18.9802 36.9889 18.4354 36.9889 17.7976C36.9889 16.2752 36.9889 14.9208 36.9889 13.3806C36.9889 12.3071 36.0749 11.4186 34.8983 11.2903C34.7274 10.2761 33.7349 9.49561 32.5398 9.49561H27.3523C24.9571 9.49561 23.0085 11.2169 23.0085 13.3325V17.7976C23.0085 18.4355 23.4688 18.9802 24.1115 19.1862C24.34 20.5819 25.1904 21.7944 26.3986 22.6081V24.0046L24.2445 24.3736C24.2256 24.3768 24.207 24.3806 24.1883 24.3849C23.8654 24.4599 23.585 24.624 23.3798 24.8463L20.9223 25.4834C18.7867 26.037 17.2953 27.7969 17.2953 29.7629V30.2193C15.3141 28.1064 13.9925 25.4809 13.6239 22.5725C13.57 22.1462 13.1342 21.8388 12.6525 21.8871C12.17 21.9349 11.8226 22.319 11.8766 22.7452C12.9096 30.8966 20.7007 37.0435 29.9997 37.0435C39.2986 37.0435 47.0897 30.8965 48.1227 22.7452C48.1767 22.3191 47.8294 21.935 47.3468 21.8873ZM40.9458 29.7627V31.8262C38.9164 33.4161 36.4421 34.5647 33.719 35.1182L32.078 30.334L33.2971 29.3024C33.3625 29.3091 33.428 29.3134 33.4935 29.3134C34.0118 29.3134 34.5223 29.1043 34.8536 28.7126L36.6892 26.5429C36.7029 26.5266 36.7138 26.509 36.7267 26.4924L38.5818 26.9734C39.9737 27.3343 40.9458 28.4814 40.9458 29.7627ZM29.2684 29.3264L28.371 28.5782L30.0546 27.6054L31.6573 28.5392L30.7271 29.3264H29.2684ZM33.4806 27.7411L31.5106 26.5931L32.9708 25.4785L35.0858 25.8437L33.4806 27.7411ZM27.3523 11.0487H32.5398C32.8852 11.0487 33.1661 11.2968 33.1661 11.6018C33.1661 12.2777 33.7886 12.8275 34.5537 12.8275H34.6044C34.9498 12.8275 35.2307 13.0756 35.2307 13.3806V15.508H33.9974C33.9046 15.508 33.829 15.4412 33.829 15.3591V14.8527C33.829 14.1379 33.3528 13.5759 32.5224 13.3109C32.0389 13.1565 31.5833 13.1488 31.497 13.1488V13.1507C31.2995 13.1481 28.4916 13.1488 28.4798 13.1488C27.3659 13.1666 26.1685 13.7069 26.1685 14.8525V15.3591C26.1685 15.4412 26.0929 15.508 26.0001 15.508H24.7668V13.3325C24.7667 12.0731 25.9266 11.0487 27.3523 11.0487ZM24.7667 17.7241V17.061H26C27.0624 17.061 27.9265 16.2975 27.9265 15.3591V14.8525C27.9265 14.8459 27.9269 14.8408 27.9272 14.8371C27.9967 14.7791 28.2558 14.7096 28.491 14.7021C28.4977 14.7022 28.5047 14.7021 28.5119 14.7022C28.623 14.7018 30.6993 14.7019 31.4909 14.7019C31.7055 14.7048 31.9942 14.7729 32.07 14.8368C32.0705 14.8406 32.0708 14.8459 32.0708 14.8527V15.3591C32.0708 16.2707 32.8869 17.0151 33.9074 17.057C33.9867 17.0641 33.9252 17.0597 35.2308 17.061V17.7241C34.6705 17.7616 34.2169 18.1618 34.1808 18.6662C34.0422 20.6095 32.2053 22.1317 29.9989 22.1317C27.7926 22.1317 25.9557 20.6094 25.8169 18.6661C25.7807 18.1618 25.3271 17.7616 24.7667 17.7241ZM29.9986 23.6847C30.64 23.6847 31.2593 23.5936 31.8405 23.4257V24.2885L30.0444 25.6593L28.1568 24.2795V23.4257C28.738 23.5937 29.3573 23.6847 29.9986 23.6847ZM27.0374 25.4772L28.5777 26.6031L26.5441 27.7781L24.9383 25.8368L27.0374 25.4772ZM21.4176 26.9736L23.3011 26.4853C23.3106 26.4976 23.3183 26.5108 23.3283 26.5229C23.3283 26.5229 23.3284 26.5229 23.3284 26.523L25.1595 28.7368C25.4907 29.1372 26.0056 29.3514 26.5295 29.3514C26.5943 29.3514 26.6591 29.3472 26.7239 29.3406L27.9203 30.3381L26.2847 35.1191C23.5599 34.566 21.0841 33.417 19.0535 31.8262V29.763C19.0535 28.4815 20.0257 27.3345 21.4176 26.9736ZM28.0298 35.3874L29.5719 30.8794H30.4281L31.9742 35.3869C31.3262 35.4551 30.6674 35.4905 29.9998 35.4905C29.3337 35.4905 28.6763 35.4554 28.0298 35.3874Z" fill="white"/>
<path d="M12.6666 19.7992C13.1464 19.8503 13.5874 19.5497 13.6472 19.124C14.6671 11.8576 21.6973 6.37786 30 6.37786C38.3064 6.37786 45.337 11.8601 46.3536 19.1303C46.4086 19.5235 46.7876 19.8117 47.2249 19.8117C47.2609 19.8117 47.2972 19.8097 47.3339 19.8057C47.8157 19.7531 48.1581 19.3654 48.0985 18.9398C46.9733 10.8929 39.1925 4.82471 30 4.82471C20.8113 4.82471 13.0311 10.8899 11.9023 18.933C11.8426 19.3586 12.1848 19.7465 12.6666 19.7992Z" fill="white"/>
</g>
<defs>
<clipPath id="clip0">
<rect width="60" height="53" fill="white"/>
</clipPath>
</defs>
</svg>
