<svg width="50" height="50" viewBox="0 0 50 50" fill="none" xmlns="http://www.w3.org/2000/svg">
<path d="M50 25C50 11.2155 38.7845 0 25 0C11.2155 0 0 11.2155 0 25C0 32.2809 3.13091 38.8436 8.11455 43.4164L8.09091 43.4373L8.90182 44.1209C8.95455 44.1655 9.01182 44.2018 9.06455 44.2455C9.49545 44.6027 9.94182 44.9418 10.3964 45.27C10.5436 45.3764 10.6909 45.4827 10.8409 45.5864C11.3264 45.9209 11.8245 46.2382 12.3336 46.5391C12.4445 46.6045 12.5564 46.6682 12.6682 46.7318C13.2255 47.0491 13.7945 47.3482 14.3773 47.6227C14.42 47.6427 14.4636 47.6609 14.5064 47.6809C16.4055 48.5636 18.4327 49.2118 20.5527 49.5945C20.6082 49.6045 20.6636 49.6145 20.72 49.6245C21.3782 49.7382 22.0436 49.8291 22.7173 49.89C22.7991 49.8973 22.8809 49.9018 22.9636 49.9091C23.6345 49.9646 24.3127 50 25 50C25.6809 50 26.3527 49.9645 27.02 49.9109C27.1045 49.9036 27.1891 49.8991 27.2736 49.8918C27.9418 49.8309 28.6018 49.7427 29.2536 49.6309C29.31 49.6209 29.3673 49.6109 29.4236 49.6C31.5118 49.2255 33.51 48.5918 35.3845 47.7318C35.4536 47.7 35.5236 47.67 35.5927 47.6373C36.1536 47.3736 36.7018 47.0891 37.2391 46.7864C37.3727 46.7109 37.5055 46.6345 37.6382 46.5564C38.1273 46.2682 38.6082 45.9673 39.0755 45.6473C39.2436 45.5327 39.4082 45.4118 39.5745 45.2918C39.9736 45.0045 40.3655 44.7082 40.7464 44.3982C40.8309 44.33 40.9218 44.2709 41.0045 44.2009L41.8364 43.5064L41.8118 43.4855C46.8391 38.9109 50 32.3182 50 25ZM1.81818 25C1.81818 12.2173 12.2173 1.81818 25 1.81818C37.7827 1.81818 48.1818 12.2173 48.1818 25C48.1818 31.8882 45.1591 38.0809 40.3736 42.33C40.1064 42.1455 39.8373 41.98 39.5618 41.8418L31.8645 37.9936C31.1736 37.6482 30.7445 36.9536 30.7445 36.1818V33.4936C30.9227 33.2736 31.1109 33.0245 31.3055 32.7509C32.3018 31.3436 33.1009 29.7782 33.6836 28.0936C34.8355 27.5464 35.5791 26.3991 35.5791 25.1036V21.8809C35.5791 21.0927 35.29 20.3282 34.7727 19.7273V15.4845C34.82 15.0118 34.9873 12.35 33.0609 10.1536C31.3855 8.24091 28.6736 7.27273 25 7.27273C21.3264 7.27273 18.6145 8.24091 16.9391 10.1527C15.0127 12.3491 15.18 15.0127 15.2273 15.4836V19.7264C14.7109 20.3273 14.4209 21.0918 14.4209 21.88V25.1027C14.4209 26.1036 14.87 27.0373 15.6391 27.6673C16.3755 30.5518 17.8909 32.7355 18.4509 33.4755V36.1064C18.4509 36.8482 18.0464 37.53 17.3945 37.8864L10.2064 41.8073C9.97727 41.9318 9.75 42.0773 9.52273 42.24C4.79636 37.9927 1.81818 31.8382 1.81818 25Z" fill="white"/>
</svg>
