<svg width="45" height="45" viewBox="0 0 45 45" fill="none" xmlns="http://www.w3.org/2000/svg">
<path d="M6.32812 38.6719C6.14164 38.6719 5.9628 38.746 5.83094 38.8778C5.69908 39.0097 5.625 39.1885 5.625 39.375V44.2969C5.625 44.4834 5.69908 44.6622 5.83094 44.7941C5.9628 44.9259 6.14164 45 6.32812 45C6.51461 45 6.69345 44.9259 6.82531 44.7941C6.95717 44.6622 7.03125 44.4834 7.03125 44.2969V39.375C7.03125 39.1885 6.95717 39.0097 6.82531 38.8778C6.69345 38.746 6.51461 38.6719 6.32812 38.6719Z" fill="white"/>
<path d="M21.0938 35.1563C19.7395 35.1562 18.4307 34.6675 17.4077 33.78C16.3848 32.8925 15.7164 31.6657 15.5254 30.325C15.9227 30.1718 16.2643 29.9018 16.5052 29.5506C16.7462 29.1995 16.8751 28.7836 16.875 28.3577V26.4536C18.0941 27.0438 19.4234 27.3716 20.777 27.416C22.1307 27.4603 23.4786 27.2202 24.7337 26.7111C25.9887 26.2019 27.123 25.4352 28.0632 24.4604C29.0035 23.4855 29.7288 22.3243 30.1922 21.0516C30.8139 20.9506 31.3923 20.6694 31.8558 20.2429C32.3193 19.8165 32.6475 19.2634 32.7998 18.6522L33.2007 17.0491C33.2489 16.8571 33.2734 16.6599 33.2736 16.462C33.2723 15.9711 33.1209 15.4924 32.8399 15.09C32.5588 14.6875 32.1615 14.3806 31.7012 14.2102L31.8989 13.2434C31.9804 12.8439 32.0401 12.4403 32.0778 12.0343C32.0778 12.0319 32.0778 12.0296 32.0784 12.0271C32.11 11.687 32.1266 11.3464 32.1266 11.0076C32.128 9.55639 31.839 8.11959 31.2767 6.78179C30.1528 4.09909 28.0167 1.96756 25.3316 0.849399C22.6465 -0.268758 19.6288 -0.283397 16.933 0.808656C16.8467 0.842904 16.7681 0.893903 16.7016 0.95871C16.6351 1.02352 16.5821 1.10085 16.5457 1.18624C16.5092 1.27163 16.4901 1.3634 16.4893 1.45624C16.4885 1.54908 16.5061 1.64115 16.5411 1.72715C16.5761 1.81315 16.6277 1.89137 16.6931 1.95729C16.7585 2.02321 16.8363 2.07554 16.922 2.11124C17.0077 2.14695 17.0996 2.16533 17.1924 2.16532C17.2853 2.16531 17.3772 2.14692 17.4629 2.1112C18.8327 1.55569 20.312 1.32266 21.7863 1.43014C23.2605 1.53762 24.6903 1.98272 25.9651 2.73103C27.2399 3.47934 28.3255 4.51081 29.138 5.74568C29.9505 6.98055 30.4681 8.38574 30.6508 9.8526C29.3051 8.75687 27.6362 8.46393 27.5374 8.44714L27.2631 8.40144L24.5682 10.1984C23.5393 10.8841 22.3304 11.2501 21.0938 11.2501C19.8572 11.2501 18.6483 10.8841 17.6193 10.1984L14.9244 8.40144L14.6501 8.44714C14.5513 8.46358 12.8813 8.75704 11.5354 9.85339C11.7374 8.19561 12.3712 6.61994 13.3734 5.28405C13.4843 5.13436 13.5314 4.94685 13.5044 4.76255C13.4774 4.57824 13.3785 4.41213 13.2293 4.30055C13.1084 4.20987 12.9612 4.16111 12.8101 4.16168C12.7004 4.16186 12.5922 4.18752 12.4941 4.23663C12.396 4.28574 12.3107 4.35697 12.2448 4.44469C11.5508 5.37494 11.0079 6.40897 10.6364 7.50856C10.2544 8.63554 10.0597 9.81751 10.0599 11.0075C10.0608 11.7586 10.1373 12.5077 10.2884 13.2434L10.4861 14.2102C9.92956 14.4144 9.46833 14.8176 9.19145 15.3418C8.91456 15.866 8.84163 16.4742 8.98673 17.0491L9.38751 18.6522C9.53968 19.2634 9.86785 19.8166 10.3314 20.2431C10.7949 20.6696 11.3734 20.9507 11.9951 21.0516C12.6645 22.8904 13.8756 24.4829 15.4688 25.6191V28.3577C15.4688 28.5224 15.411 28.6818 15.3055 28.8082C15.2 28.9346 15.0535 29.02 14.8915 29.0495L5.77345 30.7073C4.15309 31.0012 2.68742 31.8549 1.63223 33.1192C0.577044 34.3835 -0.000641124 35.9783 5.33961e-07 37.6251V44.2969C5.33961e-07 44.4834 0.0740796 44.6623 0.205941 44.7941C0.337803 44.926 0.516645 45.0001 0.703125 45.0001C0.889606 45.0001 1.06845 44.926 1.20031 44.7941C1.33217 44.6623 1.40625 44.4834 1.40625 44.2969V37.6251C1.40573 36.3076 1.86787 35.0318 2.71202 34.0204C3.55617 33.0089 4.72871 32.326 6.02499 32.0909L14.1476 30.6143C14.4055 32.2714 15.2473 33.7817 16.5211 34.8725C17.7949 35.9633 19.4167 36.5627 21.0938 36.5626C21.2802 36.5626 21.4591 36.4885 21.5909 36.3566C21.7228 36.2248 21.7969 36.0459 21.7969 35.8594C21.7969 35.673 21.7228 35.4941 21.5909 35.3623C21.4591 35.2304 21.2802 35.1563 21.0938 35.1563ZM13.1871 20.1833L13.0351 19.6911L12.5147 19.6876C12.1092 19.6881 11.7152 19.5528 11.3956 19.3031C11.076 19.0535 10.8493 18.7039 10.7517 18.3103L10.3509 16.7072C10.3085 16.5413 10.3099 16.3672 10.3551 16.2021C10.4002 16.0369 10.4875 15.8863 10.6084 15.765C10.7008 15.6707 10.8111 15.5958 10.933 15.5449C11.0548 15.4941 11.1856 15.4682 11.3177 15.4688H12.1799L11.6656 12.9613C11.605 12.6634 11.5585 12.3636 11.525 12.0627C12.1975 10.6262 13.961 10.0588 14.624 9.8918L16.8389 11.3684C18.0989 12.2082 19.5792 12.6564 21.0934 12.6564C22.6077 12.6564 24.088 12.2082 25.348 11.3684L27.5629 9.8918C28.2273 10.0588 29.9891 10.6269 30.6615 12.062C30.6286 12.3627 30.582 12.6625 30.5216 12.9615L30.0083 15.4637L30.0074 15.469H30.8696C31.0016 15.4684 31.1324 15.4944 31.2542 15.5452C31.3761 15.5961 31.4865 15.6709 31.5789 15.7652C31.7616 15.9515 31.8649 16.2013 31.8672 16.4622C31.8668 16.5451 31.8565 16.6278 31.8364 16.7082L31.4357 18.3105C31.338 18.7041 31.1113 19.0536 30.7917 19.3032C30.4722 19.5528 30.0782 19.6881 29.6727 19.6876H29.1568L29.0004 20.1833C28.4846 21.8761 27.4371 23.3576 26.013 24.4082C24.589 25.4588 22.8643 26.0225 21.0946 26.0157H21.0929C19.3232 26.0225 17.5985 25.4588 16.1744 24.4082C14.7504 23.3577 13.7028 21.8761 13.1871 20.1833Z" fill="white"/>
<path d="M14.7713 3.5648C14.9274 3.5652 15.079 3.5132 15.202 3.41714C15.3338 3.31498 15.425 3.16937 15.4595 3.00623C15.4939 2.8431 15.4694 2.67303 15.3902 2.5263C15.311 2.37957 15.1823 2.2657 15.027 2.20498C14.8717 2.14425 14.6999 2.1406 14.5422 2.19467C14.3845 2.24875 14.2511 2.35704 14.1657 2.50028C14.0804 2.64351 14.0486 2.81238 14.0761 2.97683C14.1036 3.14128 14.1886 3.29064 14.3159 3.39831C14.4432 3.50598 14.6046 3.56498 14.7713 3.5648Z" fill="white"/>
<path d="M42.3179 29.7913C42.3807 29.8954 42.4693 29.9815 42.575 30.0414C42.6808 30.1013 42.8002 30.1329 42.9218 30.1332C43.0459 30.1329 43.1676 30.0998 43.2748 30.0373C43.382 29.9748 43.4707 29.885 43.532 29.7771C43.5933 29.6693 43.625 29.5471 43.6239 29.423C43.6227 29.299 43.5888 29.1774 43.5256 29.0706C43.4629 28.9659 43.3742 28.8791 43.2681 28.8187C43.162 28.7584 43.0421 28.7265 42.92 28.7261C42.7959 28.7265 42.674 28.7596 42.5668 28.8222C42.4596 28.8848 42.3708 28.9747 42.3095 29.0827C42.2482 29.1906 42.2166 29.3129 42.2177 29.437C42.2189 29.5612 42.2529 29.6828 42.3162 29.7896L42.3179 29.7913Z" fill="white"/>
<path d="M27.492 40.7101C27.3764 40.7102 27.2626 40.7388 27.1607 40.7933C27.0588 40.8479 26.9719 40.9267 26.9078 41.0229C26.8436 41.119 26.8041 41.2295 26.7928 41.3445C26.7815 41.4596 26.7987 41.5756 26.843 41.6824C26.8872 41.7892 26.9571 41.8834 27.0465 41.9567C27.1358 42.0301 27.2419 42.0803 27.3552 42.1028C27.4686 42.1254 27.5858 42.1197 27.6964 42.0862C27.807 42.0527 27.9077 41.9924 27.9895 41.9107C28.0877 41.8123 28.1546 41.687 28.1816 41.5506C28.2087 41.4142 28.1947 41.2728 28.1415 41.1444C28.0883 41.0159 27.9982 40.9061 27.8826 40.8288C27.767 40.7515 27.6311 40.7102 27.492 40.7101Z" fill="white"/>
<path d="M44.6748 31.8445C44.6362 31.6931 44.5483 31.5589 44.425 31.4631C44.3016 31.3673 44.1498 31.3153 43.9936 31.3154C43.8717 31.3155 43.7519 31.3472 43.6459 31.4074C43.54 31.4676 43.4514 31.5543 43.3889 31.659C43.3416 31.7383 43.3105 31.8262 43.2973 31.9177C43.2842 32.0091 43.2894 32.1022 43.3125 32.1916C43.4996 32.9309 43.594 33.6905 43.5937 34.4531C43.5933 36.039 43.1803 37.5975 42.3954 38.9756C41.6105 40.3536 40.4807 41.5039 39.1169 42.3132C37.753 43.1226 36.2021 43.5634 34.6165 43.5922C33.0308 43.621 31.4649 43.2368 30.0726 42.4775C29.969 42.4213 29.853 42.3917 29.735 42.3914C29.5788 42.3911 29.4268 42.4429 29.3033 42.5387C29.1798 42.6344 29.0916 42.7685 29.0528 42.9199C29.014 43.0713 29.0268 43.2313 29.0891 43.3747C29.1513 43.518 29.2596 43.6365 29.3967 43.7115C30.947 44.5587 32.6856 45.0018 34.4522 44.9999H34.4531C35.8385 45.0011 37.2105 44.7291 38.4906 44.1995C39.7707 43.6698 40.9339 42.893 41.9135 41.9134C42.8931 40.9338 43.6699 39.7707 44.1995 38.4906C44.7291 37.2104 45.0011 35.8384 45 34.4531C45.0001 33.5734 44.8909 32.6972 44.6748 31.8445Z" fill="white"/>
<path d="M25.3125 34.453C25.3124 32.6729 25.8321 30.9315 26.8078 29.4425C27.7835 27.9536 29.1727 26.782 30.8049 26.0715C32.4371 25.361 34.2413 25.1426 35.9958 25.443C37.7504 25.7435 39.3791 26.5497 40.6819 27.7628C40.8116 27.8845 40.983 27.9521 41.1609 27.9517C41.2574 27.9515 41.3528 27.9316 41.4412 27.893C41.5297 27.8545 41.6093 27.7982 41.6751 27.7276C41.8021 27.5912 41.8697 27.41 41.8631 27.2238C41.8565 27.0375 41.7762 26.8616 41.64 26.7345C39.691 24.9135 37.1222 23.9024 34.4549 23.9061H34.4531C33.0678 23.905 31.6958 24.177 30.4157 24.7066C29.1355 25.2362 27.9724 26.0131 26.9928 26.9927C26.0132 27.9723 25.2364 29.1354 24.7067 30.4155C24.1771 31.6957 23.9051 33.0676 23.9063 34.453C23.9061 35.3472 24.0188 36.2379 24.2419 37.1038C24.4591 37.9416 24.7791 38.7493 25.1947 39.5085C25.2375 39.5922 25.2967 39.6665 25.3687 39.7269C25.4407 39.7874 25.524 39.8328 25.6139 39.8604C25.7037 39.8881 25.7982 39.8974 25.8918 39.888C25.9853 39.8785 26.076 39.8503 26.1584 39.8052C26.2409 39.76 26.3135 39.6988 26.3718 39.6251C26.4302 39.5515 26.4733 39.4668 26.4984 39.3762C26.5235 39.2856 26.5302 39.1909 26.518 39.0977C26.5059 39.0045 26.4752 38.9146 26.4277 38.8335C25.6959 37.4894 25.3125 35.9834 25.3125 34.453Z" fill="white"/>
<path d="M28.125 36.5625H40.7812V32.3438H28.125V36.5625ZM29.5312 33.75H39.375V35.1562H29.5312V33.75Z" fill="white"/>
</svg>
