<svg width="50" height="48" viewBox="0 0 50 48" fill="none" xmlns="http://www.w3.org/2000/svg">
<path d="M50 28.3613V3.58637C50 1.65287 48.4271 0.0799255 46.4936 0.0799255H3.50645C1.57295 0.0799255 0 1.65297 0 3.58647V28.3613C0 30.1727 1.38066 31.6676 3.14492 31.8492C3.32715 32.682 3.73428 33.4403 4.31113 34.0473C1.82627 34.7518 0 37.0391 0 39.7465V45.8104C0 46.9736 0.946289 47.92 2.10957 47.92H47.8905C49.0537 47.92 50.0001 46.9737 50.0001 45.8104C50.0001 43.7007 50.0001 41.8952 50.0001 39.7465C50.0001 38.9823 49.8564 38.238 49.5731 37.5345C49.422 37.1594 48.9956 36.9775 48.6201 37.1287C48.2449 37.2798 48.0633 37.7066 48.2144 38.0818C48.4273 38.6106 48.5353 39.1706 48.5353 39.7465V42.1644H46.9964V40.7317C46.9964 40.3272 46.6686 39.9993 46.264 39.9993C45.8594 39.9993 45.5315 40.3272 45.5315 40.7317V42.1644H39.127V40.7317C39.127 40.3272 38.7991 39.9993 38.3945 39.9993C37.9899 39.9993 37.6621 40.3272 37.6621 40.7317V42.1644H36.1231V39.7465C36.1231 37.2875 38.1236 35.2871 40.5826 35.2871H44.0757C44.8455 35.2871 45.604 35.4862 46.2693 35.8628C46.6214 36.0623 47.0684 35.9384 47.2676 35.5864C47.4669 35.2344 47.3431 34.7874 46.9911 34.5881C46.5803 34.3555 46.1427 34.1746 45.6896 34.0466C46.2661 33.4397 46.673 32.6817 46.8552 31.8492C48.6193 31.6676 50 30.1727 50 28.3613ZM1.46484 28.3613V3.58647C1.46484 2.46069 2.38076 1.54477 3.50645 1.54477H46.4936C47.6192 1.54477 48.5352 2.46059 48.5352 3.58637V28.3613C48.5352 29.3352 47.8492 30.1507 46.9354 30.3534C46.8639 29.6919 46.6521 29.0722 46.3312 28.5237C46.6473 28.3115 46.8559 27.9509 46.8559 27.5423V4.40541C46.8559 3.75414 46.3259 3.22416 45.6745 3.22416H4.32549C3.67412 3.22416 3.14414 3.75405 3.14414 4.40541V7.61127C3.14414 8.01577 3.47197 8.34369 3.87656 8.34369C4.28115 8.34369 4.60898 8.01577 4.60898 7.61127V4.68901H45.3909V27.2588H45.2467C44.4495 26.611 43.4341 26.2216 42.3292 26.2216C41.2243 26.2216 40.2089 26.6109 39.4116 27.2588H27.9176C27.1203 26.611 26.105 26.2216 25 26.2216C23.895 26.2216 22.8797 26.6109 22.0824 27.2588H10.5884C9.79121 26.611 8.77578 26.2216 7.6708 26.2216C6.56582 26.2216 5.55049 26.6109 4.75332 27.2588H4.60908V11.0354C4.60908 10.6309 4.28125 10.303 3.87666 10.303C3.47207 10.303 3.14424 10.6309 3.14424 11.0354V27.5424C3.14424 27.9509 3.35283 28.3116 3.66895 28.5238C3.34805 29.0724 3.13623 29.692 3.06465 30.3535C2.15078 30.1507 1.46484 29.3352 1.46484 28.3613ZM41.2221 33.8223C37.9244 32.5931 38.8139 27.6865 42.3292 27.6865C45.8531 27.6865 46.7261 32.5959 43.4362 33.8223H41.2221ZM29.6116 30.403C29.5531 29.8023 29.3788 29.2354 29.1124 28.7237H38.2168C37.9504 29.2354 37.7761 29.8024 37.7176 30.403H29.6116ZM31.206 42.1644H29.6671V40.7317C29.6671 40.3272 29.3393 39.9993 28.9347 39.9993C28.5301 39.9993 28.2022 40.3272 28.2022 40.7317V42.1644H21.7978V40.7317C21.7978 40.3272 21.4699 39.9993 21.0653 39.9993C20.6607 39.9993 20.3329 40.3272 20.3329 40.7317V42.1644H18.794V39.7465C18.794 37.2876 20.7944 35.2872 23.2534 35.2872H26.7466C29.2056 35.2872 31.206 37.2876 31.206 39.7466V42.1644ZM15.3417 42.1644V39.7465C15.3417 37.0391 13.5154 34.7518 11.0307 34.0473C11.6032 33.4448 12.0085 32.6932 12.1927 31.8677H20.4782C20.6624 32.6932 21.0678 33.4448 21.6403 34.0473C19.1556 34.7517 17.3293 37.039 17.3293 39.7464V42.1643H15.3417V42.1644ZM6.56377 33.8223C3.27236 32.5954 4.14941 27.6865 7.6708 27.6865C11.1945 27.6865 12.068 32.596 8.77793 33.8223H6.56377ZM26.107 33.8223H23.893C20.6019 32.5955 21.4776 27.6865 25 27.6865C28.524 27.6865 29.3971 32.5959 26.107 33.8223ZM20.3884 30.403H12.2823C12.2238 29.8023 12.0495 29.2354 11.7831 28.7237H20.8875C20.6212 29.2354 20.4469 29.8023 20.3884 30.403ZM5.92422 35.2872C6.68115 35.2874 9.30391 35.2872 9.41738 35.2872C11.8764 35.2872 13.8769 37.2876 13.8769 39.7466V42.1645H12.3379V40.7318C12.3379 40.3273 12.0101 39.9994 11.6055 39.9994C11.2009 39.9994 10.873 40.3273 10.873 40.7318V42.1645H4.46855V40.7318C4.46855 40.3273 4.14072 39.9994 3.73613 39.9994C3.33154 39.9994 3.00371 40.3273 3.00371 40.7318V42.1645H1.46484V39.7466C1.46484 37.2876 3.46523 35.2872 5.92422 35.2872ZM48.5352 45.8104C48.5352 46.1659 48.246 46.4551 47.8904 46.4551H2.10957C1.754 46.4551 1.46484 46.166 1.46484 45.8104V43.6292H48.5352V45.8104ZM34.6583 39.7466V42.1645H32.6707V39.7466C32.6707 37.0392 30.8444 34.7519 28.3597 34.0474C28.9322 33.4449 29.3376 32.6933 29.5218 31.8678H37.8073C37.9915 32.6933 38.3968 33.4449 38.9693 34.0474C36.4846 34.7518 34.6583 37.0392 34.6583 39.7466Z" fill="white"/>
</svg>
