<svg width="45" height="45" viewBox="0 0 45 45" fill="none" xmlns="http://www.w3.org/2000/svg">
<path d="M6.32812 38.6719C6.14164 38.6719 5.9628 38.746 5.83094 38.8778C5.69908 39.0097 5.625 39.1885 5.625 39.375V44.2969C5.625 44.4834 5.69908 44.6622 5.83094 44.7941C5.9628 44.9259 6.14164 45 6.32812 45C6.51461 45 6.69345 44.9259 6.82531 44.7941C6.95717 44.6622 7.03125 44.4834 7.03125 44.2969V39.375C7.03125 39.1885 6.95717 39.0097 6.82531 38.8778C6.69345 38.746 6.51461 38.6719 6.32812 38.6719Z" fill="white"/>
<path d="M21.0938 35.1562C19.7395 35.1562 18.4307 34.6675 17.4077 33.78C16.3848 32.8924 15.7164 31.6656 15.5254 30.3249C15.9227 30.1717 16.2643 29.9017 16.5052 29.5506C16.7462 29.1994 16.8751 28.7835 16.875 28.3576V26.4536C18.0941 27.0437 19.4234 27.3716 20.777 27.4159C22.1307 27.4602 23.4786 27.2201 24.7337 26.711C25.9887 26.2019 27.123 25.4351 28.0632 24.4603C29.0035 23.4854 29.7288 22.3242 30.1922 21.0516C30.8139 20.9505 31.3923 20.6694 31.8558 20.2429C32.3193 19.8164 32.6475 19.2633 32.7998 18.6521L33.2007 17.049C33.2489 16.857 33.2734 16.6599 33.2736 16.4619C33.2723 15.9711 33.1209 15.4923 32.8399 15.0899C32.5588 14.6875 32.1615 14.3805 31.7012 14.2101L31.8989 13.2434C31.9804 12.8439 32.0401 12.4402 32.0778 12.0342C32.0778 12.0319 32.0778 12.0295 32.0784 12.027C32.11 11.6869 32.1266 11.3463 32.1266 11.0075C32.128 9.55632 31.839 8.11953 31.2767 6.78172C30.1528 4.09902 28.0167 1.96749 25.3316 0.84933C22.6465 -0.268827 19.6288 -0.283466 16.933 0.808588C16.8467 0.842836 16.7681 0.893835 16.7016 0.958642C16.6351 1.02345 16.5821 1.10078 16.5457 1.18617C16.5092 1.27157 16.4901 1.36333 16.4893 1.45617C16.4885 1.54901 16.5061 1.64108 16.5411 1.72708C16.5761 1.81308 16.6277 1.8913 16.6931 1.95722C16.7585 2.02315 16.8363 2.07547 16.922 2.11117C17.0077 2.14688 17.0996 2.16526 17.1924 2.16525C17.2853 2.16524 17.3772 2.14685 17.4629 2.11113C18.8327 1.55562 20.312 1.32259 21.7863 1.43007C23.2605 1.53755 24.6903 1.98265 25.9651 2.73096C27.2399 3.47927 28.3255 4.51074 29.138 5.74561C29.9505 6.98049 30.4681 8.38568 30.6508 9.85253C29.3051 8.7568 27.6362 8.46386 27.5374 8.44707L27.2631 8.40137L24.5682 10.1983C23.5393 10.8841 22.3304 11.25 21.0938 11.25C19.8572 11.25 18.6483 10.8841 17.6193 10.1983L14.9244 8.40137L14.6501 8.44707C14.5513 8.46351 12.8813 8.75698 11.5354 9.85332C11.7374 8.19554 12.3712 6.61987 13.3734 5.28398C13.4843 5.13429 13.5314 4.94678 13.5044 4.76248C13.4774 4.57817 13.3785 4.41206 13.2293 4.30048C13.1084 4.2098 12.9612 4.16104 12.8101 4.16161C12.7004 4.16179 12.5922 4.18745 12.4941 4.23656C12.396 4.28567 12.3107 4.3569 12.2448 4.44462C11.5508 5.37487 11.0079 6.4089 10.6364 7.50849C10.2544 8.63548 10.0597 9.81744 10.0599 11.0074C10.0608 11.7585 10.1373 12.5076 10.2884 13.2434L10.4861 14.2101C9.92956 14.4144 9.46833 14.8175 9.19145 15.3417C8.91456 15.866 8.84163 16.4742 8.98673 17.049L9.38751 18.6521C9.53968 19.2634 9.86785 19.8165 10.3314 20.243C10.7949 20.6695 11.3734 20.9507 11.9951 21.0516C12.6645 22.8903 13.8756 24.4828 15.4688 25.6191V28.3576C15.4688 28.5223 15.411 28.6817 15.3055 28.8081C15.2 28.9346 15.0535 29.02 14.8915 29.0494L5.77345 30.7072C4.15309 31.0012 2.68742 31.8548 1.63223 33.1191C0.577044 34.3835 -0.000641124 35.9782 5.33961e-07 37.625V44.2969C5.33961e-07 44.4833 0.0740796 44.6622 0.205941 44.7941C0.337803 44.9259 0.516645 45 0.703125 45C0.889606 45 1.06845 44.9259 1.20031 44.7941C1.33217 44.6622 1.40625 44.4833 1.40625 44.2969V37.625C1.40573 36.3076 1.86787 35.0318 2.71202 34.0203C3.55617 33.0089 4.72871 32.3259 6.02499 32.0908L14.1476 30.6142C14.4055 32.2713 15.2473 33.7816 16.5211 34.8724C17.7949 35.9632 19.4167 36.5626 21.0938 36.5625C21.2802 36.5625 21.4591 36.4884 21.5909 36.3566C21.7228 36.2247 21.7969 36.0458 21.7969 35.8594C21.7969 35.6729 21.7228 35.494 21.5909 35.3622C21.4591 35.2303 21.2802 35.1562 21.0938 35.1562ZM13.1871 20.1832L13.0351 19.691L12.5147 19.6875C12.1092 19.6881 11.7152 19.5527 11.3956 19.3031C11.076 19.0534 10.8493 18.7039 10.7517 18.3102L10.3509 16.7071C10.3085 16.5412 10.3099 16.3672 10.3551 16.202C10.4002 16.0368 10.4875 15.8862 10.6084 15.7649C10.7008 15.6706 10.8111 15.5958 10.933 15.5449C11.0548 15.494 11.1856 15.4681 11.3177 15.4687H12.1799L11.6656 12.9612C11.605 12.6634 11.5585 12.3636 11.525 12.0626C12.1975 10.6261 13.961 10.0587 14.624 9.89173L16.8389 11.3683C18.0989 12.2081 19.5792 12.6563 21.0934 12.6563C22.6077 12.6563 24.088 12.2081 25.348 11.3683L27.5629 9.89173C28.2273 10.0587 29.9891 10.6269 30.6615 12.0619C30.6286 12.3626 30.582 12.6625 30.5216 12.9614L30.0083 15.4636L30.0074 15.4689H30.8696C31.0016 15.4684 31.1324 15.4943 31.2542 15.5452C31.3761 15.596 31.4865 15.6708 31.5789 15.7651C31.7616 15.9514 31.8649 16.2012 31.8672 16.4621C31.8668 16.5451 31.8565 16.6277 31.8364 16.7082L31.4357 18.3104C31.338 18.704 31.1113 19.0535 30.7917 19.3031C30.4722 19.5527 30.0782 19.6881 29.6727 19.6875H29.1568L29.0004 20.1832C28.4846 21.876 27.4371 23.3576 26.013 24.4081C24.589 25.4587 22.8643 26.0224 21.0946 26.0156H21.0929C19.3232 26.0224 17.5985 25.4588 16.1744 24.4082C14.7504 23.3576 13.7028 21.876 13.1871 20.1832Z" fill="white"/>
<path d="M14.7713 3.56468C14.9273 3.56507 15.079 3.51308 15.2019 3.41702C15.3337 3.31486 15.4249 3.16925 15.4594 3.00611C15.4939 2.84298 15.4693 2.67291 15.3901 2.52618C15.3109 2.37945 15.1822 2.26558 15.0269 2.20486C14.8717 2.14413 14.6999 2.14048 14.5421 2.19455C14.3844 2.24863 14.251 2.35692 14.1657 2.50015C14.0803 2.64339 14.0486 2.81226 14.0761 2.97671C14.1035 3.14116 14.1885 3.29052 14.3158 3.39819C14.4431 3.50586 14.6045 3.56486 14.7713 3.56468Z" fill="white"/>
<path d="M42.3179 29.7913C42.3808 29.8954 42.4693 29.9815 42.5751 30.0414C42.6809 30.1012 42.8003 30.1329 42.9218 30.1332C43.0459 30.1329 43.1677 30.0998 43.2749 30.0373C43.382 29.9747 43.4708 29.885 43.5321 29.7771C43.5934 29.6692 43.6251 29.5471 43.6239 29.423C43.6228 29.2989 43.5889 29.1774 43.5257 29.0706C43.463 28.9658 43.3743 28.8791 43.2682 28.8187C43.1621 28.7583 43.0422 28.7264 42.9201 28.7261C42.7959 28.7264 42.6741 28.7596 42.5669 28.8222C42.4597 28.8848 42.3709 28.9746 42.3096 29.0826C42.2483 29.1906 42.2166 29.3128 42.2178 29.437C42.219 29.5611 42.2529 29.6828 42.3163 29.7896L42.3179 29.7913Z" fill="white"/>
<path d="M27.4916 40.7102C27.376 40.7103 27.2623 40.7389 27.1604 40.7934C27.0584 40.848 26.9716 40.9268 26.9074 41.023C26.8432 41.1191 26.8037 41.2296 26.7924 41.3446C26.7811 41.4596 26.7984 41.5757 26.8426 41.6825C26.8869 41.7893 26.9568 41.8835 27.0461 41.9568C27.1355 42.0302 27.2415 42.0803 27.3549 42.1029C27.4682 42.1255 27.5854 42.1198 27.696 42.0863C27.8067 42.0528 27.9073 41.9925 27.9891 41.9108C28.0873 41.8124 28.1542 41.6871 28.1813 41.5507C28.2083 41.4143 28.1943 41.2729 28.1411 41.1445C28.0879 41.016 27.9978 40.9062 27.8822 40.8289C27.7666 40.7516 27.6307 40.7103 27.4916 40.7102Z" fill="white"/>
<path d="M44.6752 31.8445C44.6366 31.6932 44.5487 31.559 44.4254 31.4632C44.302 31.3673 44.1503 31.3154 43.9941 31.3154C43.8722 31.3155 43.7524 31.3472 43.6464 31.4075C43.5404 31.4677 43.4518 31.5544 43.3894 31.6591C43.342 31.7384 43.3109 31.8263 43.2978 31.9177C43.2846 32.0092 43.2898 32.1023 43.3129 32.1917C43.5 32.9309 43.5945 33.6906 43.5942 34.4531C43.5937 36.039 43.1807 37.5976 42.3958 38.9756C41.6109 40.3537 40.4811 41.5039 39.1173 42.3133C37.7535 43.1227 36.2026 43.5634 34.6169 43.5922C33.0312 43.621 31.4654 43.2369 30.0731 42.4775C29.9694 42.4213 29.8534 42.3917 29.7355 42.3914C29.5792 42.3912 29.4273 42.443 29.3037 42.5387C29.1802 42.6344 29.0921 42.7686 29.0533 42.92C29.0145 43.0714 29.0272 43.2314 29.0895 43.3747C29.1518 43.5181 29.26 43.6366 29.3972 43.7115C30.9474 44.5587 32.686 45.0018 34.4526 45H34.4535C35.8389 45.0012 37.2109 44.7291 38.491 44.1995C39.7711 43.6699 40.9343 42.8931 41.9139 41.9135C42.8935 40.9339 43.6703 39.7707 44.1999 38.4906C44.7296 37.2105 45.0016 35.8385 45.0004 34.4531C45.0006 33.5735 44.8913 32.6972 44.6752 31.8445Z" fill="white"/>
<path d="M25.3125 34.4531C25.3124 32.673 25.8321 30.9316 26.8078 29.4427C27.7835 27.9537 29.1727 26.7821 30.8049 26.0716C32.4371 25.3612 34.2413 25.1427 35.9958 25.4432C37.7504 25.7436 39.3791 26.5498 40.6819 27.7629C40.8116 27.8847 40.983 27.9523 41.1609 27.9519C41.2574 27.9517 41.3528 27.9317 41.4412 27.8931C41.5297 27.8546 41.6093 27.7983 41.6751 27.7277C41.8021 27.5913 41.8697 27.4101 41.8631 27.2239C41.8565 27.0377 41.7762 26.8617 41.64 26.7346C39.691 24.9137 37.1222 23.9025 34.4549 23.9063H34.4531C33.0678 23.9051 31.6958 24.1771 30.4157 24.7067C29.1355 25.2364 27.9724 26.0132 26.9928 26.9928C26.0132 27.9724 25.2364 29.1355 24.7067 30.4157C24.1771 31.6958 23.9051 33.0678 23.9063 34.4531C23.9061 35.3473 24.0188 36.238 24.2419 37.1039C24.4591 37.9417 24.7791 38.7494 25.1947 39.5086C25.2375 39.5923 25.2967 39.6666 25.3687 39.727C25.4407 39.7875 25.524 39.8329 25.6139 39.8605C25.7037 39.8882 25.7982 39.8976 25.8918 39.8881C25.9853 39.8786 26.076 39.8504 26.1584 39.8053C26.2409 39.7601 26.3135 39.6989 26.3718 39.6253C26.4302 39.5516 26.4733 39.4669 26.4984 39.3763C26.5235 39.2857 26.5302 39.191 26.518 39.0978C26.5059 39.0046 26.4752 38.9147 26.4277 38.8336C25.6959 37.4895 25.3125 35.9835 25.3125 34.4531Z" fill="white"/>
<path d="M28.125 36.5625H40.7812V32.3438H28.125V36.5625ZM29.5312 33.75H39.375V35.1562H29.5312V33.75Z" fill="white"/>
</svg>
