<svg width="60" height="46" viewBox="0 0 60 46" fill="none" xmlns="http://www.w3.org/2000/svg">
<path d="M57.3178 33.3174L53.6879 32.2803C53.5312 32.2355 53.4218 32.0904 53.4218 31.9274V30.7158C53.7171 30.5112 53.9988 30.2822 54.2621 30.0266C55.5383 28.7882 56.2411 27.1271 56.2411 25.3491V23.6772L56.5921 22.9754C56.9773 22.2048 57.1808 21.3422 57.1808 20.4809V15.9516C57.1808 15.4662 56.7873 15.0727 56.3019 15.0727H47.8441C44.7687 15.0727 42.2665 17.5749 42.2665 20.6504V20.7027C42.2665 21.419 42.4358 22.1363 42.7561 22.7768L43.2062 23.6771V25.1126C43.2062 27.3877 44.3273 29.429 46.0255 30.6573L46.0257 31.9272C46.0257 32.123 46.0257 32.2041 45.3 32.4115L43.5288 32.9175L38.4053 31.0545C38.4237 30.8127 38.3421 30.5669 38.1657 30.3816L36.5285 28.6615V25.774C36.7016 25.6314 36.8722 25.4849 37.0376 25.33C39.103 23.3941 40.2875 20.6608 40.2875 17.8311V15.525C40.9112 14.1679 41.2273 12.7318 41.2273 11.2527V1.85547C41.2273 1.37008 40.8338 0.976566 40.3484 0.976566H27.1918C22.5618 0.976566 18.795 4.74344 18.795 9.3734V11.253C18.795 12.732 19.1111 14.1681 19.7347 15.5253V17.5094C19.7347 20.7948 21.1956 23.7548 23.4937 25.7062V28.6616L21.8565 30.3817C21.6802 30.567 21.5986 30.8129 21.617 31.0546L16.2094 33.0209C15.8175 33.1634 15.4534 33.3564 15.1228 33.5902L14.2737 33.1656C16.8014 32.0654 17.6021 30.5179 17.6406 30.441C17.7643 30.1936 17.7643 29.9023 17.6406 29.6549C17.007 28.3877 16.9302 26.0649 16.8686 24.1986C16.848 23.5772 16.8286 22.9902 16.7914 22.4676C16.4918 18.2519 13.287 15.0727 9.33656 15.0727C5.38617 15.0727 2.18121 18.2518 1.88168 22.4676C1.84453 22.9904 1.82508 23.5773 1.80457 24.1988C1.74293 26.065 1.66605 28.3875 1.03254 29.6548C0.908789 29.9022 0.908789 30.1935 1.03254 30.4409C1.07098 30.5178 1.87008 32.0621 4.40285 33.1636L2.04422 34.3429C0.783281 34.9738 0 36.2412 0 37.6509V44.1441C0 44.6295 0.393516 45.023 0.878906 45.023C1.3643 45.023 1.75781 44.6295 1.75781 44.1441V37.6509C1.75781 36.9112 2.16879 36.2461 2.83031 35.9153L5.76738 34.4468L6.78902 35.4177C7.5034 36.0966 8.4198 36.4359 9.33656 36.4359C10.2531 36.4359 11.17 36.0964 11.8841 35.4177L12.9056 34.447L13.8633 34.9258C13.4123 35.6473 13.1564 36.4934 13.1564 37.3797V44.1443C13.1564 44.6297 13.5499 45.0232 14.0353 45.0232C14.5207 45.0232 14.9142 44.6297 14.9142 44.1443V37.3797C14.9142 36.1731 15.6761 35.0854 16.8101 34.673L22.5115 32.5998L24.8849 36.1601C25.1883 36.6153 25.6745 36.9072 26.2188 36.9611C26.2795 36.9671 26.3399 36.97 26.4001 36.97C26.8804 36.97 27.3403 36.781 27.6841 36.4373L29.1321 34.9893V44.1445C29.1321 44.6298 29.5256 45.0234 30.011 45.0234C30.4964 45.0234 30.8899 44.6298 30.8899 44.1445V34.9893L32.3379 36.4373C32.6816 36.7811 33.1416 36.9701 33.6219 36.9701C33.682 36.9701 33.7425 36.9672 33.8031 36.9612C34.3475 36.9073 34.8338 36.6154 35.1371 36.1602L37.5107 32.6001L43.212 34.6732C44.3459 35.0856 45.1078 36.1734 45.1078 37.3799V44.1446C45.1078 44.63 45.5013 45.0235 45.9867 45.0235C46.4721 45.0235 46.8656 44.63 46.8656 44.1446V37.3799C46.8656 36.1579 46.3801 35.0118 45.5657 34.1642L45.7828 34.1022C46.0018 34.0396 46.3007 33.9539 46.6007 33.8069L48.8447 36.0509V44.1446C48.8447 44.63 49.2382 45.0235 49.7236 45.0235C50.209 45.0235 50.6025 44.63 50.6025 44.1446V36.0509L52.8309 33.8225C52.9494 33.8827 53.0739 33.9336 53.2049 33.9709L56.8349 35.008C57.6634 35.2448 58.2422 36.012 58.2422 36.8738V44.1446C58.2422 44.63 58.6357 45.0235 59.1211 45.0235C59.6065 45.0235 60 44.63 60 44.1446V36.8738C60 35.2311 58.897 33.7687 57.3178 33.3174ZM5.63848 31.765C3.99445 31.1734 3.1698 30.3848 2.81777 29.9541C3.05777 29.3267 3.2134 28.6081 3.31875 27.8495C3.80344 29.0117 4.6152 30.0038 5.63848 30.7116V31.765ZM10.6734 34.1437C9.92379 34.8559 8.74945 34.8558 8.00004 34.1436L7.18266 33.3668C7.32059 33.1084 7.39641 32.8155 7.39641 32.5086V31.5718C8.00953 31.7634 8.66133 31.8667 9.3368 31.8667C10.0114 31.8667 10.6629 31.7629 11.2771 31.5723L11.277 32.5084C11.277 32.8155 11.3527 33.1086 11.4907 33.3671L10.6734 34.1437ZM9.33703 30.1089C6.7125 30.1089 4.57746 27.9738 4.57746 25.3493C4.57746 24.8639 4.18395 24.4704 3.69855 24.4704C3.64934 24.4704 3.60129 24.4755 3.5543 24.4833C3.55687 24.4077 3.55934 24.332 3.56191 24.2572C3.58148 23.6528 3.60035 23.082 3.63516 22.5924C3.74742 21.0132 4.37848 19.5579 5.41207 18.4946C6.45492 17.4216 7.84875 16.8307 9.3368 16.8307C10.8248 16.8307 12.2186 17.4216 13.2615 18.4946C14.2951 19.5579 14.9262 21.0132 15.0384 22.5924C15.0731 23.0819 15.0921 23.6526 15.112 24.2568C15.1138 24.3087 15.1155 24.3613 15.1173 24.4136C14.1611 22.9403 12.6843 21.8546 10.7761 21.2415C9.01324 20.6751 7.49707 20.7101 7.43309 20.7118C7.20293 20.7182 6.98449 20.8145 6.82477 20.9802L5.23898 22.6248C4.90207 22.9743 4.91215 23.5307 5.2616 23.8676C5.61105 24.2045 6.16746 24.1943 6.50437 23.845L7.82391 22.4766C8.96027 22.5322 12.6162 22.9573 14.038 26.0882C13.6802 28.3954 11.6972 30.1089 9.33703 30.1089ZM13.0346 31.7679L13.0348 30.7197C14.0572 30.0157 14.8702 29.0255 15.3552 27.8546C15.4605 28.6114 15.6161 29.3283 15.8556 29.9543C15.5055 30.3809 14.677 31.1766 13.0346 31.7679ZM21.4925 17.5093V15.3286C21.4925 15.1963 21.4627 15.0657 21.4051 14.9465C20.8396 13.7753 20.5528 12.5327 20.5528 11.253V9.37352C20.5528 5.7127 23.5311 2.7345 27.1918 2.7345H39.4695V11.2531C39.4695 12.5328 39.1827 13.7754 38.6171 14.9466C38.5596 15.0658 38.5297 15.1964 38.5297 15.3288V17.8313C38.5297 20.2115 37.5729 22.4192 35.8355 24.0477C35.6186 24.2509 35.3934 24.4415 35.1607 24.619C35.1555 24.6225 35.1506 24.6264 35.1456 24.63C33.518 25.8658 31.5244 26.4664 29.4424 26.3315C24.9845 26.0429 21.4925 22.1677 21.4925 17.5093ZM26.4412 35.1941C26.4352 35.2002 26.421 35.2147 26.3923 35.2116C26.3637 35.2088 26.3524 35.192 26.3476 35.1848L23.6142 31.0846L24.4938 30.1604L28.6405 32.9948L26.4412 35.1941ZM30.0111 31.8024L25.2516 28.549V26.9084C26.4831 27.5741 27.862 27.9905 29.3286 28.0854C29.5603 28.1004 29.7906 28.1078 30.0202 28.1078C31.7007 28.1078 33.3182 27.7061 34.7707 26.9436V28.549L30.0111 31.8024ZM33.6746 35.185C33.6698 35.1923 33.6586 35.209 33.63 35.2118C33.6013 35.2155 33.5872 35.2004 33.581 35.1944L31.3818 32.9951L35.5284 30.1606L36.4082 31.0848L33.6746 35.185ZM49.7236 34.4434L47.7291 32.449C47.7639 32.2909 47.7836 32.1179 47.7834 31.927L47.7833 31.5561C48.3368 31.7377 48.9202 31.8455 49.5238 31.8636C49.5915 31.8657 49.6587 31.8666 49.7262 31.8666C50.3932 31.8666 51.0443 31.7658 51.664 31.5735V31.9274C51.664 32.1027 51.686 32.2745 51.7275 32.4397L49.7236 34.4434ZM53.038 28.7652C52.1065 29.6692 50.8759 30.1466 49.5766 30.1066C47.0332 30.0303 44.964 27.79 44.964 25.1129V23.4698C44.964 23.3332 44.9323 23.1987 44.8712 23.0767L44.3283 21.9909C44.1294 21.593 44.0243 21.1477 44.0243 20.7029V20.6505C44.0243 18.5441 45.7379 16.8306 47.8441 16.8306H55.423V20.481C55.423 21.0709 55.2836 21.6617 55.0198 22.1894L54.5761 23.0767C54.515 23.1988 54.4833 23.3332 54.4833 23.4698V25.3492C54.4833 26.6477 53.97 27.8608 53.038 28.7652Z" fill="white"/>
</svg>
