<svg width="50" height="48" viewBox="0 0 50 48" fill="none" xmlns="http://www.w3.org/2000/svg">
<path d="M11.5746 21.1436L21.7187 16.5538C21.7763 16.5279 21.8436 16.5489 21.8762 16.6027L23.3281 19.0016C23.7443 19.6896 24.6108 19.958 25.3434 19.6262L37.5305 14.1039L37.0016 15.5019C36.8584 15.8802 37.049 16.3029 37.4273 16.4461C37.8065 16.5896 38.2288 16.3979 38.3716 16.0203L39.3868 13.337C39.6073 12.7538 39.3122 12.0999 38.7292 11.8792L36.0461 10.864C35.6678 10.7209 35.2449 10.9113 35.1018 11.2898C34.9587 11.6682 35.1493 12.0908 35.5276 12.234L36.9337 12.766L24.7387 18.2919C24.6816 18.318 24.6139 18.2969 24.5812 18.2431L23.1294 15.8442C22.7132 15.1566 21.8475 14.8879 21.1149 15.2192L10.9707 19.8089C10.6022 19.9757 10.4386 20.4096 10.6054 20.7781C10.7725 21.1474 11.2067 21.3102 11.5746 21.1436Z" fill="white"/>
<path d="M50 28.3612V3.58628C50 1.65278 48.4271 0.079834 46.4936 0.079834H3.50645C1.57295 0.079834 0 1.65288 0 3.58638V28.3612C0 30.1726 1.38066 31.6675 3.14492 31.8491C3.32715 32.6819 3.73428 33.4402 4.31113 34.0472C1.82627 34.7517 0 37.039 0 39.7464V45.8103C0 46.9735 0.946289 47.9199 2.10957 47.9199H47.8905C49.0537 47.9199 50.0001 46.9736 50.0001 45.8103C50.0001 43.7006 50.0001 41.8951 50.0001 39.7464C50.0001 38.9822 49.8564 38.2379 49.5731 37.5344C49.422 37.1593 48.9956 36.9774 48.6201 37.1287C48.2449 37.2797 48.0633 37.7065 48.2144 38.0817C48.4273 38.6105 48.5353 39.1706 48.5353 39.7464V42.1643H46.9964V40.7316C46.9964 40.3271 46.6686 39.9992 46.264 39.9992C45.8594 39.9992 45.5315 40.3271 45.5315 40.7316V42.1643H39.127V40.7316C39.127 40.3271 38.7991 39.9992 38.3945 39.9992C37.9899 39.9992 37.6621 40.3271 37.6621 40.7316V42.1643H36.1231V39.7464C36.1231 37.2874 38.1236 35.287 40.5826 35.287H44.0757C44.8455 35.287 45.604 35.4861 46.2693 35.8627C46.6214 36.0623 47.0684 35.9383 47.2676 35.5863C47.4669 35.2343 47.3431 34.7874 46.9911 34.588C46.5803 34.3554 46.1427 34.1745 45.6896 34.0465C46.2661 33.4396 46.673 32.6816 46.8552 31.8491C48.6193 31.6675 50 30.1726 50 28.3612ZM1.46484 28.3612V3.58638C1.46484 2.4606 2.38076 1.54468 3.50645 1.54468H46.4936C47.6192 1.54468 48.5352 2.4605 48.5352 3.58628V28.3612C48.5352 29.3351 47.8492 30.1506 46.9354 30.3533C46.8639 29.6918 46.6521 29.0721 46.3312 28.5236C46.6473 28.3114 46.8559 27.9508 46.8559 27.5422V4.40532C46.8559 3.75405 46.3259 3.22407 45.6745 3.22407H4.32549C3.67412 3.22407 3.14414 3.75395 3.14414 4.40532V7.61118C3.14414 8.01567 3.47197 8.3436 3.87656 8.3436C4.28115 8.3436 4.60898 8.01567 4.60898 7.61118V4.68892H45.3909V27.2587H45.2467C44.4495 26.6109 43.4341 26.2215 42.3292 26.2215C41.2243 26.2215 40.2089 26.6108 39.4116 27.2587H27.9176C27.1203 26.6109 26.105 26.2215 25 26.2215C23.895 26.2215 22.8797 26.6108 22.0824 27.2587H10.5884C9.79121 26.6109 8.77578 26.2215 7.6708 26.2215C6.56582 26.2215 5.55049 26.6108 4.75332 27.2587H4.60908V11.0353C4.60908 10.6308 4.28125 10.3029 3.87666 10.3029C3.47207 10.3029 3.14424 10.6308 3.14424 11.0353V27.5423C3.14424 27.9508 3.35283 28.3115 3.66895 28.5237C3.34805 29.0723 3.13623 29.6919 3.06465 30.3534C2.15078 30.1506 1.46484 29.3351 1.46484 28.3612ZM41.2221 33.8222C37.9244 32.593 38.8139 27.6864 42.3292 27.6864C45.8531 27.6864 46.7261 32.5958 43.4362 33.8222H41.2221ZM29.6116 30.4029C29.5531 29.8022 29.3788 29.2353 29.1124 28.7236H38.2168C37.9504 29.2353 37.7761 29.8023 37.7176 30.4029H29.6116ZM31.206 42.1643H29.6671V40.7316C29.6671 40.3271 29.3393 39.9992 28.9347 39.9992C28.5301 39.9992 28.2022 40.3271 28.2022 40.7316V42.1643H21.7978V40.7316C21.7978 40.3271 21.4699 39.9992 21.0653 39.9992C20.6607 39.9992 20.3329 40.3271 20.3329 40.7316V42.1643H18.794V39.7464C18.794 37.2875 20.7944 35.2871 23.2534 35.2871H26.7466C29.2056 35.2871 31.206 37.2875 31.206 39.7465V42.1643ZM15.3417 42.1643V39.7464C15.3417 37.039 13.5154 34.7517 11.0307 34.0472C11.6032 33.4447 12.0085 32.6931 12.1927 31.8676H20.4782C20.6624 32.6931 21.0678 33.4447 21.6403 34.0472C19.1556 34.7516 17.3293 37.0389 17.3293 39.7463V42.1642H15.3417V42.1643ZM6.56377 33.8222C3.27236 32.5953 4.14941 27.6864 7.6708 27.6864C11.1945 27.6864 12.068 32.5959 8.77793 33.8222H6.56377ZM26.107 33.8222H23.893C20.6019 32.5955 21.4776 27.6864 25 27.6864C28.524 27.6864 29.3971 32.5958 26.107 33.8222ZM20.3884 30.4029H12.2823C12.2238 29.8022 12.0495 29.2353 11.7831 28.7236H20.8875C20.6212 29.2353 20.4469 29.8022 20.3884 30.4029ZM5.92422 35.2871C6.68115 35.2873 9.30391 35.2871 9.41738 35.2871C11.8764 35.2871 13.8769 37.2875 13.8769 39.7465V42.1644H12.3379V40.7317C12.3379 40.3272 12.0101 39.9993 11.6055 39.9993C11.2009 39.9993 10.873 40.3272 10.873 40.7317V42.1644H4.46855V40.7317C4.46855 40.3272 4.14072 39.9993 3.73613 39.9993C3.33154 39.9993 3.00371 40.3272 3.00371 40.7317V42.1644H1.46484V39.7465C1.46484 37.2875 3.46523 35.2871 5.92422 35.2871ZM48.5352 45.8103C48.5352 46.1658 48.246 46.455 47.8904 46.455H2.10957C1.754 46.455 1.46484 46.1659 1.46484 45.8103V43.6291H48.5352V45.8103ZM34.6583 39.7465V42.1644H32.6707V39.7465C32.6707 37.0391 30.8444 34.7518 28.3597 34.0473C28.9322 33.4448 29.3376 32.6932 29.5218 31.8677H37.8073C37.9915 32.6932 38.3968 33.4448 38.9693 34.0473C36.4846 34.7517 34.6583 37.0391 34.6583 39.7465Z" fill="white"/>
</svg>
