<svg width="55" height="49" viewBox="0 0 55 49" fill="none" xmlns="http://www.w3.org/2000/svg">
<path d="M42.3077 28.5834C42.3077 17.326 32.8177 8.16675 21.1538 8.16675C9.49 8.16675 0 17.326 0 28.5834C0 34.5295 2.64923 39.889 6.86615 43.6234L6.84615 43.6405L7.53231 44.1988C7.57692 44.2352 7.62538 44.2649 7.67 44.3005C8.03462 44.5923 8.41231 44.8692 8.79692 45.1372C8.92154 45.2241 9.04615 45.311 9.17308 45.3956C9.58385 45.6688 10.0054 45.9279 10.4362 46.1737C10.53 46.2271 10.6246 46.2791 10.7192 46.3311C11.1908 46.5902 11.6723 46.8344 12.1654 47.0586C12.2015 47.075 12.2385 47.0898 12.2746 47.1062C13.8815 47.827 15.5969 48.3564 17.3908 48.669C17.4377 48.6771 17.4846 48.6853 17.5323 48.6935C18.0892 48.7863 18.6523 48.8605 19.2223 48.9102C19.2915 48.9162 19.3608 48.9199 19.4308 48.9258C19.9985 48.9711 20.5723 49.0001 21.1538 49.0001C21.73 49.0001 22.2985 48.9711 22.8631 48.9273C22.9346 48.9214 23.0062 48.9177 23.0777 48.9117C23.6431 48.862 24.2015 48.79 24.7531 48.6987C24.8008 48.6905 24.8492 48.6823 24.8969 48.6734C26.6638 48.3675 28.3546 47.8501 29.9408 47.1477C29.9992 47.1217 30.0585 47.0972 30.1169 47.0705C30.5915 46.8552 31.0554 46.6228 31.51 46.3756C31.6231 46.314 31.7354 46.2516 31.8477 46.1878C32.2615 45.9524 32.6685 45.7067 33.0638 45.4454C33.2062 45.3518 33.3454 45.2531 33.4862 45.1551C33.8238 44.9205 34.1554 44.6784 34.4777 44.4253C34.5492 44.3696 34.6262 44.3213 34.6962 44.2642L35.4 43.6969L35.3792 43.6799C39.6331 39.944 42.3077 34.5599 42.3077 28.5834ZM1.53846 28.5834C1.53846 18.1442 10.3377 9.6516 21.1538 9.6516C31.97 9.6516 40.7692 18.1442 40.7692 28.5834C40.7692 34.2088 38.2115 39.2662 34.1623 42.7362C33.9362 42.5855 33.7085 42.4504 33.4754 42.3376L26.9623 39.1949C26.3777 38.9128 26.0146 38.3455 26.0146 37.7152V35.5199C26.1654 35.3402 26.3246 35.1368 26.4892 34.9133C27.3323 33.764 28.0085 32.4856 28.5015 31.1099C29.4762 30.6629 30.1054 29.726 30.1054 28.6681V26.0362C30.1054 25.3925 29.8608 24.7681 29.4231 24.2774V20.8125C29.4631 20.4264 29.6046 18.2526 27.9746 16.4589C26.5569 14.8968 24.2623 14.1061 21.1538 14.1061C18.0454 14.1061 15.7508 14.8968 14.3331 16.4581C12.7031 18.2518 12.8446 20.4271 12.8846 20.8117V24.2766C12.4477 24.7674 12.2023 25.3917 12.2023 26.0354V28.6673C12.2023 29.4847 12.5823 30.2472 13.2331 30.7617C13.8562 33.1174 15.1385 34.9007 15.6123 35.505V37.6536C15.6123 38.2594 15.27 38.8162 14.7185 39.1073L8.63615 42.3093C8.44231 42.4111 8.25 42.5299 8.05769 42.6627C4.05846 39.1941 1.53846 34.1679 1.53846 28.5834Z" fill="white"/>
<path d="M49.4468 7.65625H42.7834C42.4768 7.65625 42.2281 7.88492 42.2281 8.16667C42.2281 8.44842 42.4768 8.67708 42.7834 8.67708H49.4468C49.7533 8.67708 50.0021 8.44842 50.0021 8.16667C50.0021 7.88492 49.7533 7.65625 49.4468 7.65625ZM52.7785 0H39.4516C38.225 0 37.2305 0.914159 37.2305 2.04167V14.2917C37.2305 15.4192 38.225 16.3333 39.4516 16.3333H52.7785C54.0052 16.3333 54.9997 15.4192 54.9997 14.2917V2.04167C54.9997 0.914159 54.0052 0 52.7785 0ZM53.8891 14.2917C53.8891 14.8557 53.3921 15.3125 52.7785 15.3125H39.4516C38.838 15.3125 38.341 14.8557 38.341 14.2917V2.04167C38.341 1.47766 38.838 1.02083 39.4516 1.02083H52.7785C53.3921 1.02083 53.8891 1.47817 53.8891 2.04167V14.2917Z" fill="white"/>
</svg>
